<?xml version="1.0" encoding="UTF-8"?>
<svg id="Layer_6" xmlns="http://www.w3.org/2000/svg" version="1.1" viewBox="0 0 259.89 245.66">
  <!-- Generator: Adobe Illustrator 29.6.0, SVG Export Plug-In . SVG Version: 2.1.1 Build 142)  -->
  <defs>
    <style>
      .st0 {
        fill: #333;
      }
    </style>
  </defs>
  <path class="st0" d="M203.29,182.62c4.83-3.43,9.42-7.17,13.77-11.22,25.92-2.93,44.93-26.01,42.64-52.14-25.57,2.24-44.71,24.01-44.03,49.32-6.42,6.08-13.37,11.44-20.88,16.1,16.57-14.92,21.07-39.88,9.47-59.97-22.76,13.14-30.75,42.01-18.2,64.94-10.96,5.71-22.99,10.1-36.19,13.14,19.51-10.27,30.05-32.98,24.1-55.17-25.13,6.73-40.27,32.1-34.57,57.25-12.72,2.18-26.45,3.24-41.25,3.2,19.58-3.88,35.48-19.74,38.42-40.62-1.04-.15-2.07-.25-3.1-.32.64-.59,1.28-1.19,1.92-1.78,18.88-17.48,38.24-35.41,60.28-46.78,24.87,5.17,49.74-9.92,56.4-34.76-25.11-6.73-50.87,7.64-58.54,32.21-5.46,2.85-10.74,6.08-15.89,9.6,10.61-11.59,14.8-27.58,11.59-42.64,20.64-6.84,41.68-12.48,62.98-16.85.39-.08.73-.31.95-.64.22-.33.3-.73.22-1.13-.08-.4-.31-.73-.65-.96-.33-.22-.73-.29-1.13-.21-21.34,4.38-42.41,10.03-63.1,16.87-1.43-5.12-3.73-10.09-6.95-14.69-8.6,6.02-14.62,14.34-17.85,23.55-6.5,2.49-12.96,5.11-19.37,7.84-.79-1.13-1.63-2.24-2.54-3.32-2.75,2.31-5.17,4.86-7.27,7.6-10.81,4.85-21.46,10.05-31.95,15.57,1.02-3.91,1.57-8.02,1.57-12.25-22.35,0-41.13,15.19-46.63,35.8-.25-2.64-.51-5.26-.78-7.88-1.88-18.63-3.8-37.81.11-60.28,6.72-5.85,11.44-13.21,14.08-21.16C107.75,31.25,146.7,17.05,194.15,5.39c.39-.1.72-.34.93-.68.21-.34.27-.75.17-1.13-.19-.8-1.01-1.29-1.81-1.1-23.65,5.81-45.21,12.26-65.44,19.67,2.08-6.97,2.64-14.5,1.29-22.15-20.06,3.53-35.01,18.98-38.9,37.77-6.18,2.89-12.27,5.9-18.3,9.06,3.31-13.9.45-29.11-9.11-41.18-16.88,13.38-22.4,35.76-15.18,54.88-2.79,1.68-5.58,3.4-8.36,5.15-6.78-6.86-15.67-11.77-25.9-13.57-1.77,10.01-.3,19.85,3.64,28.44-3.06,2.16-6.13,4.35-9.21,6.6-.67.49-.81,1.43-.33,2.1.28.38.73.61,1.21.61.32,0,.63-.1.88-.29,2.94-2.15,5.87-4.25,8.8-6.31,6.58,12.26,18.37,21.57,32.99,24.52.36,8.53,1.19,16.73,2,24.82.03.31.06.63.1.94-7.93-21.46-30.29-34.87-53.62-30.75,4.54,25.77,28.75,43.11,54.46,39.36.08.91.16,1.81.24,2.72-5.15,3.4-10.25,6.89-15.29,10.46-8.49-7.43-19.6-11.95-31.77-11.95,0,10.72,3.5,20.62,9.41,28.63-.57.45-1.14.88-1.7,1.33-.65.51-.76,1.46-.24,2.11.29.36.71.57,1.18.57.34,0,.67-.12.93-.32.56-.45,1.13-.88,1.7-1.33,8.4,10.02,20.79,16.57,34.72,17.21-.7,4.24-1.6,8.6-2.75,13.1-5.71-.75-11.54-1.61-17.51-2.6-.39-.07-.79.02-1.12.25-.33.23-.55.58-.61.98-.14.82.42,1.59,1.23,1.73,5.86.97,11.6,1.82,17.24,2.56-.9,3.28-1.93,6.63-3.11,10.06,0,.02,0,.04-.01.05-.02.06-.03.13-.04.19,0,.04-.02.09-.02.13,0,.06,0,.12,0,.18,0,.05,0,.1,0,.15,0,.02,0,.05,0,.07,0,.02.01.03.02.05.03.17.08.33.16.48.01.02.02.04.03.06.18.3.45.55.8.68.01,0,.02.01.04.02.01,0,.02.01.03.02.17.06.34.08.51.09,0,0,0,0,.01,0h0s0,0,0,0c.08,0,.16,0,.24-.02,10.19-1.52,19.7-4.86,28.79-9.48,6.16.4,12.13.63,17.91.7,7.37,25.04,33.41,39.76,58.76,32.97-4.52-16.87-17.43-29.23-33.04-33.82,7.19-.6,14.11-1.52,20.76-2.73,13.41,22.84,42.76,30.63,65.74,17.36-8.6-14.89-23.92-23.45-39.92-24.09,6.1-2.12,11.94-4.56,17.51-7.34,17.28,19.47,47.03,21.77,67.09,4.93-12.36-14.73-31.65-20.22-49.1-15.7ZM162.59,92.58c-3.42,12.95-1.44,27.23,6.56,39.17-8.95,6.8-17.53,14.31-25.94,21.98,11.98-15.69,13.24-37.39,2.82-54.42,5.48-2.33,11.01-4.58,16.56-6.73ZM51.76,87.09c-1.92-7.11-5.45-13.66-10.24-19.16,2.48-1.56,4.96-3.08,7.44-4.58,1.28,2.82,2.84,5.55,4.7,8.16-.93,5.37-1.54,10.56-1.9,15.59ZM41.66,157.43c4.39-3.1,8.83-6.14,13.32-9.12.81,10.62,1.12,21.65-.06,33.58-1.94-9.46-6.66-17.9-13.25-24.46ZM57.34,188.99c25.95,1.51,48.57-17.89,50.85-43.96-22.27-1.95-42.31,11.55-49.58,31.61.54-8.4.39-16.37-.09-24.09,19.78-1.06,36.39-14.03,42.8-31.87,9.84-5.25,19.84-10.2,29.97-14.85-10.04,16.94-8.98,38.99,4.12,55.07-.75.69-1.49,1.38-2.24,2.07-1.46,1.35-2.91,2.69-4.35,4.03-21.64.43-40.58,15.41-45.82,36.63-2.17,1.29-4.37,2.51-6.58,3.65-7.2-.49-14.63-1.22-22.29-2.16,1.41-5.57,2.45-10.93,3.2-16.11ZM50.93,216.16c.9-2.76,1.71-5.47,2.44-8.13,6.03.75,11.91,1.36,17.66,1.83-6.45,2.87-13.12,5.03-20.09,6.31Z"/>
  <path class="st0" d="M74.4,69.04c-6.44,3.49-6.62,8.69-3.76,14.8,2.18,4.67,4.36,9.34,6.53,14.01,2.86,6.14,6.77,9.26,13.33,5.71,6.49-3.49,6.5-8.73,3.66-14.82-2.18-4.68-4.37-9.37-6.55-14.05-2.83-6.08-6.84-9.07-13.21-5.65ZM89.32,101.02c-4.4,2.38-6.71.06-8.69-4.2-2.38-5.1-4.76-10.2-7.14-15.3-2-4.29-2.3-7.56,2.1-9.94,4.32-2.33,6.58-.12,8.58,4.17l7.14,15.3c1.99,4.26,2.33,7.64-1.99,9.96Z"/>
  <path class="st0" d="M118.23,89.08c1.03-.49,2.07-.97,3.11-1.45-4.42-4.95-8.84-9.89-13.25-14.83,3.32-2.54,2.79-6.29,1-10.12-2.49-5.33-6.12-7.64-12.42-4.6-2.54,1.23-5.08,2.48-7.6,3.75,5.25,11.26,10.5,22.52,15.75,33.77,1.05-.53,2.1-1.05,3.15-1.57-2.58-5.53-5.16-11.06-7.74-16.59,1.76-.87,3.52-1.73,5.29-2.58,4.23,4.73,8.47,9.48,12.72,14.23ZM99.14,75.1c-1.94-4.16-3.88-8.31-5.81-12.47,1.45-.72,2.91-1.43,4.37-2.14,4.3-2.07,6.35-.53,8.29,3.64,1.95,4.17,1.61,6.86-2.56,8.87-1.43.69-2.86,1.39-4.29,2.1Z"/>
  <path class="st0" d="M143.54,77.94c-2.54-5.45-5.08-10.9-7.62-16.34-2.72,1.12-5.42,2.25-8.12,3.41.37.79.74,1.58,1.11,2.38,1.7-.73,3.41-1.45,5.12-2.17.62,1.32,1.23,2.64,1.85,3.96,2.33,5.01,2.52,8.35-1.74,10.18-4.47,1.93-6.86-.46-9.16-5.39-2.16-4.63-4.32-9.26-6.47-13.88-2.1-4.5-2.9-8.09,1.86-10.15,4.22-1.81,6.38.2,8.59,4.95.18.39.36.78.54,1.17,1.03-.43,2.05-.85,3.08-1.28-.18-.39-.36-.78-.54-1.17-2.89-6.2-6.73-8.84-12.9-6.19-6.89,2.98-6.74,8-3.73,14.46,2.05,4.39,4.1,8.78,6.14,13.18,3.02,6.47,6.95,9.86,13.5,7.02,3.53-1.52,4.53-3.97,4.23-6.93.72,1.23,1.45,2.45,2.17,3.68.7-.29,1.4-.58,2.1-.87Z"/>
  <path class="st0" d="M163.24,70.29c1.09-.4,2.18-.8,3.27-1.19-7.75-10.36-15.49-20.7-23.23-31.02-1.16.44-2.31.87-3.47,1.32,2.78,12.2,5.57,24.43,8.37,36.67,1.06-.42,2.12-.85,3.19-1.26-.82-3.25-1.63-6.49-2.45-9.74,2.78-1.08,5.57-2.14,8.36-3.18,1.99,2.8,3.97,5.6,5.96,8.41ZM148.32,62.58c-1.59-6.55-3.18-13.1-4.78-19.65,4.07,5.6,8.15,11.21,12.23,16.82-2.49.93-4.98,1.87-7.45,2.83Z"/>
  <path class="st0" d="M188.36,61.73c-5.25-11.26-10.5-22.52-15.75-33.77-.97.31-1.95.62-2.92.93,4.08,8.74,8.15,17.48,12.23,26.23-7.88-7.52-15.74-15.01-23.59-22.45-.8.28-1.61.56-2.41.84,5.25,11.26,10.5,22.52,15.75,33.77.96-.34,1.93-.67,2.89-1-4.12-8.84-8.24-17.68-12.37-26.52,7.91,7.54,15.83,15.12,23.77,22.74.8-.25,1.59-.51,2.39-.76Z"/>
  <path class="st0" d="M198.97,58.51c-5.25-11.26-10.5-22.52-15.75-33.77-1.13.33-2.26.66-3.38,1,5.25,11.26,10.5,22.52,15.75,33.77,1.13-.34,2.25-.67,3.38-1Z"/>
  <path class="st0" d="M194.55,33.07c2.09,4.48,4.17,8.95,6.26,13.43,2.74,5.89,6.75,10,14.12,8.06,6.8-1.77,6.72-6.35,3.96-12.28-.31-.67-.62-1.33-.93-2-1.09.27-2.17.53-3.25.81.34.74.69,1.47,1.03,2.21,2.06,4.42,2.61,7.53-1.94,8.71-4.5,1.18-6.96-.95-9.3-5.96-2.24-4.79-4.47-9.59-6.71-14.38-2.1-4.5-2.67-7.79,2.28-9.1,4.55-1.18,6.65,1.38,8.69,5.76.3.65.61,1.31.91,1.96,1.08-.27,2.17-.54,3.25-.81-.32-.68-.64-1.36-.95-2.04-2.74-5.87-6.61-9.09-13.13-7.4-7.24,1.91-7.18,6.84-4.28,13.04Z"/>
</svg>