<?xml version="1.0" encoding="UTF-8"?>
<svg id="Layer_5" xmlns="http://www.w3.org/2000/svg" version="1.1" viewBox="0 0 250.28 223.55">
  <!-- Generator: Adobe Illustrator 29.6.0, SVG Export Plug-In . SVG Version: 2.1.1 Build 142)  -->
  <defs>
    <style>
      .st0 {
        fill: #333;
      }
    </style>
  </defs>
  <path class="st0" d="M25.66,27.11h16.69c2.09,9.59,11.23,17.22,12.81,18.47l-.27,4.05c4.01.68,14.36,3.82,27.44,3.82s23.44-3.14,27.45-3.82l-.27-4.04c1.54-1.22,10.73-8.87,12.83-18.48h102.96c.83,0,1.5-.67,1.5-1.5s-.67-1.5-1.5-1.5h-102.56c.01-.28.03-.56.03-.84C122.77,4.06,96.8,0,82.34,0s-40.42,4.06-40.42,23.27c0,.28.01.56.03.84h-16.29c-.83,0-1.5.67-1.5,1.5s.67,1.5,1.5,1.5ZM55.44,12.18l.05-.5c17.84,1.89,35.87,1.9,53.71.01l.05.5.05.49c-4.31,2.06-8.79,3.21-13.3,4.04-4.52.79-9.09,1.16-13.66,1.14-4.57-.02-9.13-.4-13.65-1.19-4.51-.85-8.99-1.98-13.31-4l.06-.49Z"/>
  <path class="st0" d="M248.78,153.14h-68.05l-3.27-5.67c-.58-1-1.62-1.6-2.77-1.6s-2.2.6-2.78,1.6l-3.27,5.67h-36.55c-.21,0-.41.04-.59.12-4.34-35.01-9.59-77.21-10.78-86.83-.17-1.3-.76-2.5-1.68-3.37l-8.91-9.94s-14.16,4.07-27.79,4.07-27.8-4.07-27.8-4.07l-8.89,9.94c-.92.87-1.51,2.07-1.68,3.37-1.19,9.6-6.43,51.72-10.77,86.7H1.5c-.83,0-1.5.67-1.5,1.5s.67,1.5,1.5,1.5h31.33c-2.53,20.41-4.69,37.93-5.46,44.37-.18,1.54.67,3.02,2.07,3.53,1.23.45,2.47.89,3.71,1.31-1.03.13-1.84,1.01-1.84,2.07,0,1.16.94,2.1,2.1,2.1s2.1-.94,2.1-2.1c0-.59-.25-1.13-.64-1.51,14.91,4.81,31.2,7.22,47.48,7.22,18.28,0,36.57-3.03,52.91-9.09,1.4-.51,2.25-1.99,2.06-3.53-.14-1.19-.34-2.78-.57-4.69,1.14.2,2.28.39,3.42.57-1.34.27-2.3,1.21-2.3,2.37,0,1.38,1.35,2.46,3.07,2.46s3.07-1.08,3.07-2.46c0-.09-.02-.18-.03-.28.29-.08.56-.23.78-.43.62,1.09,1.76,1.84,3.09,1.88h0c0,1.19.96,2.15,2.15,2.15s2.15-.96,2.15-2.15c0-.77-.41-1.45-1.03-1.83.05-.09.1-.18.15-.27.78.08,1.56.16,2.34.24-.45.39-.73.96-.73,1.61,0,.52.19.99.5,1.36-.24.35-.4.76-.4,1.2,0,1.38,1.35,2.46,3.07,2.46.25,0,.49-.03.72-.07.15.68.77,1.2,1.5,1.2.85,0,1.54-.69,1.54-1.54,0-.59-.33-1.09-.82-1.35.08-.22.14-.45.14-.7,0-.41-.13-.79-.35-1.13.29.2.65.31,1.03.31,1.02,0,1.84-.83,1.84-1.84,0-.33-.09-.64-.25-.91.28.02.56.03.83.05-.03.2-.06.4-.06.6,0,2.03,1.65,3.69,3.69,3.69,1.33,0,2.49-.72,3.14-1.78.17.04.34.07.53.07.36,0,.7-.1,1-.26.43.94,1.53,1.61,2.88,1.61.11,0,.21-.02.32-.03.18.83.92,1.46,1.8,1.46,1.02,0,1.84-.83,1.84-1.84,0-.69-.39-1.28-.95-1.6.03-.15.05-.29.05-.45,0-.41-.13-.79-.34-1.12,1.43,0,2.86-.03,4.29-.07-.52.39-.86,1.01-.86,1.71,0,1.19.96,2.15,2.15,2.15s2.15-.96,2.15-2.15c0-.74-.37-1.39-.94-1.78.47-.02.93-.04,1.4-.06.08.6.57,1.07,1.2,1.07.17,0,.33-.03.48-.1-.23.35-.38.74-.38,1.17,0,.33.08.65.23.94-.93.09-1.66.87-1.66,1.82,0,1.02.83,1.84,1.84,1.84s1.84-.83,1.84-1.84c0-.14-.02-.28-.05-.41.28.06.56.11.87.11,1.72,0,3.07-1.08,3.07-2.46,0-1.23-1.08-2.22-2.54-2.42.6-.04,1.2-.08,1.79-.12-.01.08-.02.15-.02.23,0,.85.69,1.54,1.54,1.54s1.54-.69,1.54-1.54c0-.17-.03-.32-.08-.47.69-.06,1.38-.13,2.08-.2,0,0,0,0,0,0,0,1.19.96,2.15,2.15,2.15.54,0,1.02-.21,1.4-.53-.04.17-.07.34-.07.52,0,1.38,1.35,2.46,3.07,2.46,1.21,0,2.23-.54,2.73-1.34.36.26.79.42,1.26.42,1.19,0,2.15-.96,2.15-2.15,0-.1-.02-.19-.03-.28.28.65.93,1.11,1.69,1.11,1.02,0,1.84-.83,1.84-1.84,0-.07-.01-.14-.02-.21.34.21.74.37,1.19.44-.39.34-.65.83-.65,1.39,0,1.02.83,1.84,1.84,1.84s1.84-.83,1.84-1.84c0-.69-.39-1.29-.95-1.6.07-.03.15-.06.22-.09.38.35.89.57,1.45.57,1.19,0,2.15-.96,2.15-2.15s-.96-2.15-2.15-2.15c-.23,0-.45.05-.66.11-.56-.57-1.42-.93-2.41-.93-1.72,0-3.07,1.08-3.07,2.46,0,.15.02.3.05.45-.21-.08-.44-.13-.67-.13-1.02,0-1.84.83-1.84,1.84,0,.07.01.13.02.2-.12-.3-.31-.56-.55-.77.55-.32.92-.91.92-1.58s-.39-1.29-.96-1.61c.02-.62-.22-1.23-.7-1.66l-2.4-2.16c-3.23-2.92-5.97-6.31-8.15-10.08l-14.29-24.76h66.32c.83,0,1.5-.67,1.5-1.5s-.67-1.5-1.5-1.5ZM90.4,71.55l-4.03.22-4.03.07c-5.37-.01-10.74-.46-16.07-1.33-5.32-.87-10.61-2.13-15.74-4.28l.04-.33.06-.67c21.06,2.45,42.36,2.45,63.43,0l.09,1.01c-5.13,2.18-10.41,3.46-15.73,4.32-2.66.51-5.35.68-8.02.98ZM122.55,189.6l-21.26-109.08s4.67-.99,6.77-2.57l15.74,111.52-1.25.13ZM158.2,200.48c-.3-.23-.65-.41-1.05-.53.01-.09.03-.18.03-.27,0-.51-.18-.97-.48-1.34.55.04,1.09.09,1.64.13-.23.31-.38.69-.38,1.11,0,.33.09.63.24.89ZM204.05,197.13s0,.03,0,.05c0,.53.35.98.82,1.15-.03.04-.06.08-.08.12-.55-.44-1.32-.71-2.18-.71-.95,0-1.77.33-2.33.86.05-.17.08-.35.08-.54,0-.16-.02-.31-.05-.46,1.25-.14,2.5-.3,3.75-.47ZM162.94,163.01c-2.99,5.18-6.81,9.78-11.36,13.66l-15.55,13.26c-1.05-8.57-2.54-20.58-4.18-33.81.08.01.16.02.24.02h34.81l-3.96,6.86Z"/>
  <path class="st0" d="M160.28,76.22c0-4.23-2.53-7.54-5.43-10.31l-6.58-6.21c-1.93-1.84-2.62-3.4-2.62-5.43,0-3.36,2.16-4.92,5.25-4.92,4.28,0,5.57,2.76,5.93,7.45l2.99-.78c-.51-6.85-3.54-9.43-8.92-9.43-5.06,0-8.42,2.85-8.42,8,0,2.9,1.01,5.24,3.4,7.5l6.58,6.3c2.81,2.67,4.55,4.74,4.55,8.05,0,3.77-1.93,5.38-5.24,5.38-4.55,0-5.75-3.59-6.26-8.19l-3.08.92c.41,6.07,3.22,10.12,9.29,10.12,5.01,0,8.56-2.9,8.56-8.46Z"/>
  <path class="st0" d="M183.32,84.22l-7.91-37.26h-3.68l-7.87,37.26h3.4l1.89-9.98h8.88l1.84,9.98h3.45ZM169.66,71.71l3.96-20.1,3.96,20.1h-7.91Z"/>
  <polygon class="st0" points="202.83 81.6 192.24 81.6 192.24 46.96 188.75 46.96 188.75 84.22 202.83 84.22 202.83 81.6"/>
  <polygon class="st0" points="219.39 46.96 202 46.96 202 49.67 209.03 49.67 209.03 84.22 212.53 84.22 212.53 49.67 219.39 49.67 219.39 46.96"/>
  <polygon class="st0" points="155.81 99.58 155.81 96.96 142.43 96.96 142.43 134.22 145.92 134.22 145.92 116.19 154.16 116.19 154.16 113.61 145.92 113.61 145.92 99.58 155.81 99.58"/>
  <path class="st0" d="M178.77,106.44c0-5.89-2.3-9.48-9.25-9.48h-8.42v37.26h3.5v-18.31h5.84l5.47,18.31h3.4l-5.7-19.05c4.05-.87,5.15-4.51,5.15-8.74ZM169.34,113.34h-4.74v-13.76h4.83c4.74,0,5.93,2.25,5.93,6.85s-1.43,6.9-6.03,6.9Z"/>
  <polygon class="st0" points="199.01 99.67 199.01 96.96 185.53 96.96 185.53 134.22 199.1 134.22 199.1 131.6 189.07 131.6 189.07 116.24 197.17 116.24 197.17 113.66 189.07 113.66 189.07 99.67 199.01 99.67"/>
  <polygon class="st0" points="218.24 99.67 218.24 96.96 204.76 96.96 204.76 134.22 218.33 134.22 218.33 131.6 208.3 131.6 208.3 116.24 216.4 116.24 216.4 113.66 208.3 113.66 208.3 99.67 218.24 99.67"/>
  <path class="st0" d="M145.61,206.08c.39-.21.66-.6.66-1.07,0-.68-.55-1.23-1.23-1.23s-1.23.55-1.23,1.23c0,.47.27.86.66,1.07-1.44.21-2.5,1.19-2.5,2.41,0,1.38,1.35,2.46,3.07,2.46s3.07-1.08,3.07-2.46c0-1.22-1.06-2.2-2.5-2.41Z"/>
  <path class="st0" d="M37.44,210.57c-1.68,0-3,1.05-3,2.4s1.32,2.4,3,2.4,3-1.05,3-2.4-1.32-2.4-3-2.4Z"/>
  <path class="st0" d="M169.01,202.96c-1.02,0-1.84.83-1.84,1.84s.83,1.84,1.84,1.84,1.84-.83,1.84-1.84-.83-1.84-1.84-1.84Z"/>
  <path class="st0" d="M178.7,204.59c-.8,0-1.47.51-1.73,1.22-.43-.18-.92-.29-1.45-.29-1.72,0-3.07,1.08-3.07,2.46s1.35,2.46,3.07,2.46c1.6,0,2.86-.93,3.04-2.16.05,0,.09.01.14.01,1.02,0,1.84-.83,1.84-1.84s-.83-1.84-1.84-1.84Z"/>
  <path class="st0" d="M46.46,215.99c-.99,0-1.8.81-1.8,1.8s.81,1.8,1.8,1.8,1.8-.81,1.8-1.8-.81-1.8-1.8-1.8Z"/>
  <path class="st0" d="M207.11,202.45c-1.02,0-1.84.83-1.84,1.84s.83,1.84,1.84,1.84,1.84-.83,1.84-1.84-.83-1.84-1.84-1.84Z"/>
  <circle class="st0" cx="130.23" cy="218.02" r="1.84"/>
  <path class="st0" d="M152.98,214.78c-.85,0-1.54.69-1.54,1.54s.69,1.54,1.54,1.54,1.54-.69,1.54-1.54-.69-1.54-1.54-1.54Z"/>
  <path class="st0" d="M192.52,202.25c-.85,0-1.54.69-1.54,1.54s.69,1.54,1.54,1.54,1.54-.69,1.54-1.54-.69-1.54-1.54-1.54Z"/>
  <path class="st0" d="M162.79,204.29c-.85,0-1.54.69-1.54,1.54s.69,1.54,1.54,1.54,1.54-.69,1.54-1.54-.69-1.54-1.54-1.54Z"/>
  <circle class="st0" cx="154.52" cy="206.95" r="1.84"/>
  <path class="st0" d="M133.59,208.42c-.99,0-1.8.81-1.8,1.8,0,.16.03.31.07.46-.39-.46-.97-.76-1.63-.76-1.19,0-2.15.96-2.15,2.15s.96,2.15,2.15,2.15,2.15-.96,2.15-2.15c0-.22-.04-.43-.1-.63.33.35.8.58,1.32.58.99,0,1.8-.81,1.8-1.8s-.81-1.8-1.8-1.8Z"/>
  <path class="st0" d="M225.21,198.36c-1.02,0-1.84.83-1.84,1.84s.83,1.84,1.84,1.84,1.84-.83,1.84-1.84-.83-1.84-1.84-1.84Z"/>
  <path class="st0" d="M116.88,215.95c-1.02,0-1.84.83-1.84,1.84s.83,1.84,1.84,1.84,1.84-.83,1.84-1.84-.83-1.84-1.84-1.84Z"/>
  <path class="st0" d="M220.5,201.53c-.68,0-1.23.55-1.23,1.23s.55,1.23,1.23,1.23,1.23-.55,1.23-1.23-.55-1.23-1.23-1.23Z"/>
  <path class="st0" d="M159.8,205.88c-.68,0-1.23.55-1.23,1.23s.55,1.23,1.23,1.23,1.23-.55,1.23-1.23-.55-1.23-1.23-1.23Z"/>
  <path class="st0" d="M179.1,215.34c-.68,0-1.23.55-1.23,1.23s.55,1.23,1.23,1.23,1.23-.55,1.23-1.23-.55-1.23-1.23-1.23Z"/>
  <path class="st0" d="M124.44,219.87c-.68,0-1.23.55-1.23,1.23s.55,1.23,1.23,1.23,1.23-.55,1.23-1.23-.55-1.23-1.23-1.23Z"/>
  <circle class="st0" cx="172.27" cy="203.78" r="1.23"/>
  <path class="st0" d="M54.16,218.09c-.66,0-1.2.54-1.2,1.2s.54,1.2,1.2,1.2,1.2-.54,1.2-1.2-.54-1.2-1.2-1.2Z"/>
  <path class="st0" d="M23.86,198.4c0-.66-.54-1.2-1.2-1.2s-1.2.54-1.2,1.2.54,1.2,1.2,1.2,1.2-.54,1.2-1.2Z"/>
  <path class="st0" d="M229.95,201.02c-.68,0-1.23.55-1.23,1.23s.55,1.23,1.23,1.23,1.23-.55,1.23-1.23-.55-1.23-1.23-1.23Z"/>
  <path class="st0" d="M83.68,221.1c-.68,0-1.23.55-1.23,1.23s.55,1.23,1.23,1.23,1.23-.55,1.23-1.23-.55-1.23-1.23-1.23Z"/>
  <path class="st0" d="M196.92,200.4c-1.02,0-1.84.83-1.84,1.84s.83,1.84,1.84,1.84,1.84-.83,1.84-1.84-.83-1.84-1.84-1.84Z"/>
  <path class="st0" d="M149.49,203.48c-1.02,0-1.84.83-1.84,1.84s.83,1.84,1.84,1.84,1.84-.83,1.84-1.84-.83-1.84-1.84-1.84Z"/>
  <path class="st0" d="M139.79,206.62c-1.16,0-2.1.94-2.1,2.1s.94,2.1,2.1,2.1,2.1-.94,2.1-2.1-.94-2.1-2.1-2.1Z"/>
  <path class="st0" d="M14.94,187.68c-.99,0-1.8.81-1.8,1.8,0,.11.01.22.03.33-.04,0-.08-.03-.13-.03-.66,0-1.2.54-1.2,1.2s.54,1.2,1.2,1.2c.61,0,1.1-.47,1.17-1.06.22.1.47.16.73.16.99,0,1.8-.81,1.8-1.8s-.81-1.8-1.8-1.8Z"/>
  <circle class="st0" cx="19.66" cy="191.48" r="1.8"/>
  <path class="st0" d="M20.91,185.29c-1.16,0-2.1.94-2.1,2.1s.94,2.1,2.1,2.1c.53,0,1-.2,1.37-.52-.04.16-.07.33-.07.51,0,1.35,1.32,2.4,3,2.4s3-1.05,3-2.4-1.32-2.4-3-2.4c-.93,0-1.73.33-2.28.84.04-.17.08-.34.08-.53,0-1.16-.94-2.1-2.1-2.1Z"/>
  <path class="st0" d="M224.94,196.39c0-1.16-.94-2.1-2.1-2.1s-2.1.94-2.1,2.1.94,2.1,2.1,2.1,2.1-.94,2.1-2.1Z"/>
  <circle class="st0" cx="29.58" cy="210.12" r="1.5"/>
  <path class="st0" d="M29.72,206.72c0-.99-.81-1.8-1.8-1.8s-1.8.81-1.8,1.8.81,1.8,1.8,1.8,1.8-.81,1.8-1.8Z"/>
  <path class="st0" d="M24.32,206.62c-1.16,0-2.1.94-2.1,2.1s.94,2.1,2.1,2.1,2.1-.94,2.1-2.1-.94-2.1-2.1-2.1Z"/>
</svg>