<?xml version="1.0" encoding="UTF-8"?>
<svg id="Layer_3" xmlns="http://www.w3.org/2000/svg" version="1.1" viewBox="0 0 263.67 254.87">
  <!-- Generator: Adobe Illustrator 29.6.0, SVG Export Plug-In . SVG Version: 2.1.1 Build 142)  -->
  <defs>
    <style>
      .st0 {
        fill: #333;
      }
    </style>
  </defs>
  <path class="st0" d="M174.68,158.41c-7.48,0-13.79,3.99-13.79,8.71s6.32,8.71,13.79,8.71,13.79-3.99,13.79-8.71-6.32-8.71-13.79-8.71Z"/>
  <path class="st0" d="M133.03,44.85c1.15,4.08,1.84,8.01-.15,13.02,2.5-.92,4.65-2.98,5.99-5.56,1.36-2.58,1.89-5.51,1.98-8.27.12-5.58-1.25-10.64-2.79-15.24-1.54-4.62-3.42-8.87-4.78-12.97-.69-2.05-1.23-4.05-1.42-6.13-.21-2.09.06-4.33,1.02-6.83-2.5.92-4.6,3.13-5.8,5.79-1.22,2.66-1.57,5.59-1.55,8.32.12,5.5,1.55,10.44,3.05,15,1.52,4.57,3.27,8.78,4.45,12.87Z"/>
  <path class="st0" d="M182.9,58.35c1.15,4.08,1.84,8.01-.15,13.02,2.5-.92,4.65-2.98,5.99-5.56,1.36-2.58,1.89-5.51,1.98-8.27.12-5.58-1.25-10.64-2.79-15.24-1.54-4.62-3.42-8.87-4.78-12.97-.69-2.05-1.23-4.05-1.42-6.13-.21-2.09.06-4.33,1.02-6.83-2.5.92-4.6,3.13-5.8,5.79-1.22,2.66-1.57,5.59-1.55,8.32.12,5.5,1.55,10.44,3.05,15,1.52,4.57,3.27,8.78,4.45,12.87Z"/>
  <path class="st0" d="M153.93,40.25c2.14,6.43,4.52,12.52,5.91,18.56.69,3.02,1.1,6.02.92,9.08,0,.78-.19,1.51-.26,2.31-.13.77-.37,1.52-.53,2.34l-.83,2.35c-.35.77-.74,1.53-1.1,2.38,3.2-1.61,5.87-4.55,7.46-8.07,1.61-3.53,2.17-7.45,2.16-11.19,0-3.76-.59-7.39-1.36-10.87-.39-1.74-.87-3.43-1.33-5.12-.51-1.66-1.03-3.31-1.56-4.94-2.16-6.48-4.7-12.59-6.37-18.63-.83-3.02-1.41-6.01-1.39-9.06,0-3.05.74-6.19,2.4-9.38-3.2,1.61-5.78,4.72-7.18,8.34-1.42,3.62-1.74,7.55-1.58,11.25.42,7.45,2.52,14.24,4.64,20.66Z"/>
  <path class="st0" d="M262.16,140.17c-43.59.22-87.81,11.88-130.57,23.15-39.51,10.41-80.36,21.18-120.45,22.83-.4.02-.77.19-1.04.48-.27.29-.41.68-.4,1.08.03.81.69,1.44,1.5,1.44h.06c.79-.03,1.58-.09,2.37-.13,18.08,38.36,63.46,65.86,110.41,65.86,60.62,0,111.2-14.61,111.2-62.99v-25.58c0-8.47-1.85-15.35-4.94-21.09,10.65-1.25,21.28-1.99,31.86-2.04.4,0,.78-.16,1.06-.45.28-.28.44-.66.43-1.06,0-.82-.68-1.49-1.51-1.49ZM70.43,181.31c2.04-.42,4.08-.85,6.12-1.29l-2.7,2.7c-.39.39-.91.59-1.42.59s-1.02-.2-1.41-.59c-.39-.39-.59-.9-.58-1.41ZM89.82,185.86l11.65-11.66c2.52-.63,5.05-1.26,7.56-1.91l-16.39,16.39c-.39.4-.91.59-1.42.59s-1.02-.19-1.41-.59c-.78-.78-.78-2.04,0-2.82ZM108.09,192.59l27.13-27.13c2.55-.67,5.11-1.35,7.68-2.02l-31.97,31.97c-.39.39-.91.59-1.42.59s-1.02-.2-1.41-.59c-.78-.78-.78-2.05,0-2.83ZM219.25,166.3c0,16.24-7.56,27.43-23.79,35.21-16.29,7.82-40.32,11.78-71.41,11.78-28.08,0-54.84-11.16-74-28.23,3.39-.54,6.77-1.14,10.16-1.76,17.25,13.42,40.03,21.99,63.84,21.99,29.88,0,52.75-3.7,67.95-10.99,13.5-6.47,19.25-14.85,19.25-28,0-6.58-1.69-10.98-6.5-15.05l-9.76,9.76c.94,1.88,1.48,3.94,1.48,6.11,0,9.37-9.57,16.7-21.79,16.7-.82,0-1.62-.03-2.4-.1l-8.39,8.39c-.39.39-.9.59-1.41.59s-1.03-.2-1.42-.59c-.78-.78-.78-2.05,0-2.83l6.39-6.38c-5.08-1.33-9.25-4.02-11.81-7.55l-20.4,20.4c-.39.39-.9.58-1.41.58s-1.02-.19-1.41-.58c-.79-.78-.79-2.05,0-2.83l21.27-21.27c-.51-1.44-.8-2.96-.8-4.53,0-2.41.63-4.68,1.78-6.72,10.44-2.67,20.94-5.24,31.47-7.54,2.62,1.21,4.86,2.84,6.58,4.78l7.74-7.73c4.06-.78,8.11-1.51,12.17-2.18,4.34,4.7,6.63,10.48,6.63,18.58Z"/>
  <path class="st0" d="M245.85,68.77c.82-.06,1.45-.77,1.4-1.6-.03-.4-.21-.77-.51-1.03-.3-.26-.68-.39-1.08-.37-31.93,2.11-64.26,9.62-95.9,17.8-15.24-16.54-33.97-33.22-67.12-33.22-37.05,0-68,26.1-75.48,60.92-1.89.05-3.77.09-5.65.09-.4,0-.78.16-1.06.44C.15,112.09,0,112.47,0,112.87c0,.82.68,1.49,1.5,1.49h0c43.68-.17,87.99-11.85,130.85-23.15,37.22-9.81,75.71-19.95,113.5-22.45ZM122.95,90.59c-1.24-1.14-2.5-2.25-3.79-3.29l-5.78,5.78c-2.53.65-5.07,1.3-7.61,1.95l10.19-10.19c-3.77-2.71-7.8-5.01-12.28-6.76l-22.96,22.96c-2.41.54-4.81,1.06-7.22,1.57l25.96-25.97c-4.99-1.46-10.53-2.29-16.83-2.29-.1,0-.19.01-.29.01l-32.73,32.73c-2.23.36-4.45.7-6.68,1.02l33.37-33.37c-20.2,2.41-36.96,16.17-43.71,34.7-2.9.33-5.8.62-8.69.87,7.47-25.37,30.97-43.96,58.73-43.96,22.75,0,37.21,9.82,49.4,21.85-.15.04-.29.08-.44.12-2.87.76-5.75,1.52-8.64,2.27Z"/>
  <path class="st0" d="M90.57,118.61c-2.97.71-5.95,1.4-8.92,2.07,0,12.42,0,24.84,0,37.26,1.17-.26,2.33-.53,3.5-.8v-17.62c1.82-.42,3.65-.85,5.47-1.28,6.39-1.52,8.79-6.6,8.79-11.88,0-5.89-2.16-9.34-8.83-7.75ZM95.96,127.21c0,5.33-1.84,7.59-6.35,8.66-1.49.35-2.98.7-4.46,1.04v-14.4c1.5-.35,3.01-.7,4.51-1.05,4.92-1.17,6.3.05,6.3,5.76Z"/>
  <path class="st0" d="M100.88,153.37c1.13-.28,2.27-.57,3.4-.85.63-3.49,1.26-6.97,1.89-10.46,2.96-.75,5.92-1.51,8.88-2.28.61,3.17,1.23,6.34,1.84,9.51,1.15-.3,2.3-.6,3.45-.9-2.64-11.73-5.28-23.47-7.91-35.21-1.23.32-2.45.63-3.68.94-2.62,13.09-5.24,26.17-7.87,39.25ZM114.59,137.37c-2.64.68-5.28,1.36-7.91,2.03,1.32-7.04,2.64-14.07,3.96-21.11,1.32,6.36,2.64,12.72,3.96,19.08Z"/>
  <path class="st0" d="M125.76,109.7v37.26c4.69-1.23,9.39-2.47,14.08-3.71v-2.62c-3.53.93-7.05,1.86-10.58,2.79,0-11.55,0-23.09,0-34.64-1.17.31-2.33.61-3.5.92Z"/>
  <path class="st0" d="M157.69,104.08v-2.71c-4.49,1.14-8.99,2.3-13.48,3.48,0,12.42,0,24.84,0,37.26,4.52-1.18,9.05-2.35,13.57-3.5v-2.62c-3.34.85-6.69,1.71-10.03,2.58,0-5.12,0-10.24,0-15.37,2.7-.7,5.4-1.4,8.1-2.08v-2.58c-2.7.69-5.4,1.38-8.1,2.08,0-4.66,0-9.32,0-13.99,3.31-.86,6.62-1.71,9.94-2.55Z"/>
  <path class="st0" d="M172.32,97.39c-7.27,1.75-9.62,6.77-9.62,13.53v15.46c0,6.77,2.21,10.89,9.62,9.11,7.31-1.74,9.52-6.9,9.52-13.62v-15.5c0-6.71-2.35-10.67-9.52-8.97ZM178.3,106.52v16.88c0,4.7-1.1,8.11-5.98,9.27-4.97,1.19-6.07-1.7-6.07-6.4v-16.88c0-4.73,1.1-8.01,6.07-9.2,4.88-1.16,5.98,1.59,5.98,6.32Z"/>
</svg>