<?xml version="1.0" encoding="UTF-8"?>
<svg id="Layer_7" xmlns="http://www.w3.org/2000/svg" version="1.1" viewBox="0 0 263.77 258.08">
  <!-- Generator: Adobe Illustrator 29.6.0, SVG Export Plug-In . SVG Version: 2.1.1 Build 142)  -->
  <defs>
    <style>
      .st0 {
        fill: #333;
      }
    </style>
  </defs>
  <path class="st0" d="M263.77,100.11c0,.69-.01,1.39-.04,2.08-1.14,26.22-15.54,34.58-28.24,41.95-4.47,2.59-8.69,5.04-12.03,8.11-6.05,5.54-9.16,11.21-12.45,17.21-2.29,4.18-4.66,8.48-8.13,12.99-3.87-1.35-7.92-2.3-12.08-2.83-2.49-.31-5.02-.47-7.52-.47-10.03,0-19.95,2.6-28.71,7.53-.37.19-.67.37-.87.49l-.2.12-.18.1-.17.11c-6.69,4.24-11.1,11.19-12.11,19.06-.01.09-.02.19-.03.28-1.78-.16-3.57-.24-5.37-.24-12.79,0-24.93,4.01-35.13,11.6-.32.22-.58.43-.78.59l-.26.19-.09.08-.1.08c-6.12,5.06-9.62,12.51-9.62,20.44,0,1.02.06,2.02.18,3.01-3.11.49-6.23.73-9.37.73-.9,0-1.79-.02-2.69-.06-10.38-.45-25.39-2.67-37.93-10.69-.29-.18-.46-.5-.46-.85s.18-.66.47-.84c3.5-2.16,6.61-2.98,9.35-3.7,2.8-.74,5.21-1.37,7.3-3.29,2.83-2.59,4.67-6.89,6.81-11.87,2.8-6.52,5.97-13.91,12.36-19.78,8.64-7.91,16.39-10.16,23.23-12.14,5.29-1.53,9.86-2.85,13.85-6.52,3.95-3.61,6.25-8.63,8.91-14.44,3.57-7.8,7.62-16.63,16.89-25.14,9.52-8.71,23.17-10.74,34.15-12.36,8.08-1.2,15.07-2.24,18.55-5.44,4-3.66,6.01-6.51,8.13-9.54,2.36-3.34,4.79-6.81,10.03-11.61,3.99-3.65,11.17-5.53,18.76-7.51,11.67-3.05,23.74-6.21,24.17-15.97.02-.43.3-.79.71-.92.4-.12.84.02,1.09.36,6.25,8.38,9.62,18.65,9.62,29.1Z"/>
  <path class="st0" d="M163.42,114.7c-9.74,1.84-21.74,5.6-30.26,13.4-10.49,9.62-15.08,19.65-18.76,27.71-2.4,5.22-4.28,9.35-7.04,11.86-2.62,2.42-5.99,3.39-10.66,4.74-7.31,2.12-16.39,4.75-26.42,13.93-7.66,7.03-11.34,15.61-14.3,22.5l-.04.09c-1.69,3.93-3.28,7.64-4.83,9.06-.61.55-1.82.89-3.9,1.44-1.96.52-4.38,1.15-7.09,2.32-.12.01-.24.01-.36.01-4.43,0-8.99-.43-13.52-1.47-.33-.08-.6-.33-.71-.65-.12-.33-.06-.69.16-.96,2.53-3.15,5.15-4.93,7.45-6.5,2.35-1.6,4.38-2.98,5.69-5.44,1.77-3.33,2.06-7.92,2.41-13.24.45-6.96.96-14.85,4.96-22.39,5.4-10.17,11.85-14.79,17.54-18.87,4.4-3.16,8.2-5.88,10.71-10.59,1.97-3.72,2.65-7.97,3.1-12.01.04-.41.33-.75.73-.86,27.53-7.36,55.53-12.72,83.23-15.93.32-.04,2.01,1.47,1.91,1.85Z"/>
  <path class="st0" d="M190.95,25.94c-3.22-10.51-10.01-19.66-19.12-25.77-.35-.23-.81-.22-1.15.03-.34.25-.48.69-.36,1.1,2.81,9.18-7.34,16.07-17.16,22.72-6.39,4.33-12.42,8.42-14.92,13.12-.66,1.24-1.22,2.37-1.72,3.47-.15.33-.11.73.12,1.02.19.25.49.39.79.39.05,0,.11,0,.16-.01,18.06-2.89,36.39-4.92,54.47-6.03.28-.02.54-.15.71-.37s.25-.5.21-.78c-.41-2.82-1.1-5.82-2.04-8.9Z"/>
  <path class="st0" d="M2.73,80.31c-.39,0-.77-.23-.92-.62-.21-.51.03-1.1.54-1.31,74.32-30.72,150.79-46.01,227.21-45.42.55,0,1,.46.99,1.01,0,.55-.45.99-1,.99h0c-76.18-.59-152.36,14.65-226.43,45.27-.12.05-.25.08-.38.08Z"/>
  <path class="st0" d="M185.41,110.63c-2.32,1.38-9.2,2.4-13.88,3.1-.77.11-1.56.23-2.36.35-56.55,5.85-113.38,20.35-167.78,43.03-.13.05-.26.08-.38.08-.39,0-.77-.23-.93-.62-.21-.51.03-1.09.54-1.31,59.85-24.94,122.64-40.03,184.79-44.63Z"/>
  <path class="st0" d="M224.34,217.1c-1.18,9.33-9.17,16.18-18.35,16.18-.75,0-1.51-.04-2.27-.14-4.6-.59-8.45-2.79-11.84-4.74-2.6-1.49-4.85-2.78-6.84-3.03-1.89-.25-4.21.35-6.9,1.09-1.58-2.77-3.66-5.27-6.2-7.35l-.04-.04-.05-.04-.06-.05c-.14-.11-.29-.23-.45-.35l-.19-.14c-.18-.15-.39-.31-.63-.47-6.53-4.8-13.84-8.14-21.59-9.92,0-.17.03-.35.05-.53.7-5.49,3.78-10.35,8.46-13.32l.3-.17c.2-.12.39-.24.6-.34,9.57-5.43,20.46-7.57,31.46-6.18,10.91,1.38,20.87,6.11,28.79,13.68.06.04.15.13.25.24l.35.34s.1.1.17.17l.07.08c3.83,4.06,5.61,9.53,4.91,15.03Z"/>
  <path class="st0" d="M166.85,225.28l-.08-.07c-.07-.06-.15-.12-.18-.14l-.39-.3c-.1-.09-.21-.16-.27-.2-8.81-6.52-19.29-9.97-30.29-9.97s-21.62,3.49-30.44,10.08c-.19.13-.37.27-.55.41l-.27.21c-4.27,3.53-6.72,8.74-6.72,14.28,0,10.2,8.3,18.5,18.5,18.5,4.59,0,8.7-1.71,12.32-3.22,2.77-1.15,5.16-2.15,7.17-2.15s4.4,1,7.17,2.15c3.61,1.5,7.71,3.21,12.34,3.22,10.17-.03,18.45-8.33,18.45-18.5,0-5.54-2.45-10.75-6.76-14.3Z"/>
  <g>
    <path class="st0" d="M45.95,109.9c.96-.63,1.91-1.25,2.87-1.87,1.3,4.26,3.1,7.31,7.58,5.92,3.26-1.01,4.89-3.12,4.23-6.76-.58-3.19-2.66-4.67-5.89-6.37-2.52-1.35-5.05-2.67-7.57-3.98-2.74-1.39-4.14-3.3-4.65-6.08-.89-4.93,1.91-8.79,6.89-10.39,5.3-1.7,8.74-.13,10.43,6.32-.94.55-1.87,1.1-2.81,1.65-1.18-4.4-2.93-6.67-7.14-5.32-3.03.98-4.89,3.18-4.31,6.4.35,1.94,1.3,3.21,3.52,4.36,2.52,1.29,5.04,2.6,7.56,3.92,3.34,1.77,6.41,4.23,7.14,8.31.97,5.37-2.03,9.18-6.96,10.69-5.98,1.85-9.44-1.12-10.91-6.81Z"/>
    <path class="st0" d="M68.07,101.74c-.9-4.97-1.79-9.95-2.69-14.92-1.18-6.51.37-11.49,7.55-13.5,7.09-1.96,10.19,1.8,11.36,8.31.9,5.02,1.8,10.03,2.7,15.06,1.17,6.54-.2,11.6-7.43,13.51-7.32,1.96-10.32-1.92-11.5-8.46ZM83.62,98.3c-.98-5.46-1.96-10.92-2.95-16.38-.83-4.59-2.44-7.22-7.26-5.89-4.91,1.37-5.48,4.59-4.65,9.16.98,5.43,1.96,10.87,2.94,16.31.82,4.54,2.46,7.29,7.37,5.97,4.82-1.28,5.36-4.62,4.54-9.18Z"/>
    <path class="st0" d="M99.27,92.29c-4.23-7.45-8.46-14.86-12.68-22.22,1.12-.28,2.25-.56,3.37-.84,3.42,6.16,6.84,12.36,10.27,18.59.92-7.22,1.84-14.43,2.76-21.64,1.14-.25,2.28-.5,3.42-.75-1.26,8.7-2.51,17.4-3.77,26.1.72,4.03,1.44,8.06,2.16,12.09-1.12.25-2.25.5-3.37.75-.72-4.03-1.44-8.05-2.16-12.08Z"/>
    <path class="st0" d="M121.54,62.36c4.43-.83,8.85-1.62,13.28-2.35.15.86.31,1.73.46,2.59-3.27.54-6.54,1.1-9.81,1.69.82,4.6,1.64,9.2,2.45,13.81,2.72-.48,5.44-.94,8.17-1.39.15.85.3,1.7.45,2.54-2.72.44-5.44.9-8.17,1.38,1.05,5.92,2.1,11.84,3.15,17.76-1.16.2-2.31.4-3.47.6-2.17-12.23-4.34-24.45-6.52-36.65Z"/>
    <path class="st0" d="M140.06,59.18c2.78-.43,5.56-.84,8.35-1.23,6.89-.95,9.79,2.36,10.82,8.21.74,4.21.28,7.95-3.58,9.32,2.99,6.07,5.99,12.16,8.98,18.27-1.12.12-2.25.25-3.37.38-2.87-5.86-5.75-11.7-8.62-17.52-1.93.26-3.86.52-5.79.8,1.07,6.05,2.13,12.09,3.2,18.14-1.15.16-2.31.32-3.46.49-2.17-12.3-4.34-24.59-6.51-36.87ZM151.09,74.21c4.56-.61,5.57-3.06,4.77-7.63-.8-4.57-2.38-6.67-7.08-6.02-1.6.22-3.19.45-4.79.69.8,4.54,1.6,9.08,2.4,13.62,1.57-.22,3.13-.44,4.7-.65Z"/>
    <path class="st0" d="M164.27,55.95c4.45-.5,8.9-.94,13.34-1.33.16.91.32,1.81.47,2.72-3.28.28-6.55.6-9.83.94.81,4.65,1.63,9.3,2.44,13.95,2.67-.27,5.34-.51,8.01-.74.15.86.3,1.72.45,2.58-2.67.23-5.34.47-8.01.74.89,5.11,1.79,10.23,2.68,15.34,3.31-.31,6.61-.59,9.92-.85.15.88.3,1.75.46,2.63-4.47.34-8.94.73-13.42,1.18-2.17-12.4-4.34-24.78-6.5-37.15Z"/>
    <path class="st0" d="M183.29,54.16c4.44-.34,8.88-.63,13.31-.87.16.91.31,1.82.47,2.73-3.27.17-6.54.37-9.81.6.81,4.68,1.62,9.36,2.43,14.04,2.66-.17,5.33-.33,7.99-.47.15.86.3,1.73.45,2.59-2.66.13-5.32.29-7.99.46.89,5.14,1.78,10.29,2.67,15.44,3.3-.2,6.59-.37,9.89-.5.15.88.3,1.76.46,2.64-4.46.18-8.92.42-13.38.71-2.16-12.47-4.33-24.93-6.49-37.38Z"/>
  </g>
</svg>