<?xml version="1.0" encoding="UTF-8"?>
<svg id="Layer_8" xmlns="http://www.w3.org/2000/svg" version="1.1" viewBox="0 0 262.8 241.65">
  <!-- Generator: Adobe Illustrator 29.6.0, SVG Export Plug-In . SVG Version: 2.1.1 Build 142)  -->
  <defs>
    <style>
      .st0 {
        fill: #333;
      }
    </style>
  </defs>
  <path class="st0" d="M261.65,111.15c-21.32-5.08-42.94-8.88-64.72-11.42v-39.35l-24.54-34.64V5.12L90.39,0v19.3l-.68,2.16.91,1.28,12.91,18.49,12.77,18.58.5.71.02,1.02c.27,10.66.35,21.32.5,31.98.01.87.03,1.73.04,2.6-2.47.06-4.93.14-7.4.23.01-.94.03-1.89.04-2.83.15-10.37.23-20.74.48-31.11l-11.4-18.26-11.79-19.2-22.17,30.16-.19.26v44.48c-21.46,2.54-42.77,6.3-63.78,11.31-.39.09-.72.33-.93.67-.21.34-.27.74-.18,1.13.19.8,1.01,1.3,1.81,1.11,84.76-20.19,174.35-20.19,259.11,0,.11.03.23.04.35.04.7,0,1.3-.47,1.46-1.15.19-.8-.31-1.61-1.11-1.81ZM117.08,22.06l-8.49-.73-8.49-.87.06-.79c5.89-2.38,11.67-3.4,17.42-4,5.75-.55,11.45-.57,17.12-.11,5.66.45,11.29,1.36,16.88,2.8,5.59,1.49,11.14,3.39,16.59,6.65l-.07.79-8.51-.47-8.51-.6-17.01-1.2-16.99-1.47Z"/>
  <path class="st0" d="M243.91,182.23c-74.66-15.25-150.36-15.25-225.02,0-.39.08-.73.31-.95.64-.22.33-.3.73-.22,1.13.17.81.95,1.33,1.77,1.17,15.11-3.09,30.26-5.53,45.44-7.36v48.64l45.8,13.74c-.14-6.25-.26-12.51-.41-18.76-.19-10.66-.34-21.32-.44-31.98-.05-5.07-.09-10.15-.12-15.22,2.6-.1,5.2-.19,7.8-.25-.03,5.16-.06,10.31-.12,15.47-.1,10.66-.25,21.32-.44,31.98-.16,6.74-.29,13.49-.45,20.23l80.38-5.01v-58.95c15.49,1.84,30.96,4.33,46.38,7.48.1.02.2.03.3.03.71,0,1.33-.5,1.47-1.2.08-.39,0-.79-.22-1.13-.22-.33-.56-.56-.95-.64Z"/>
  <path class="st0" d="M53.8,146.81v-14.81c0-6.57-2.4-10.65-10.11-9.44-2.69.43-5.38.87-8.07,1.34v37.26c2.79-.48,5.59-.95,8.39-1.39,7.44-1.16,9.79-6,9.79-12.96ZM50.21,146.77c0,5.44-.55,9.49-6.43,10.41-1.56.25-3.12.5-4.68.76v-31.93c1.51-.25,3.03-.5,4.54-.74,5.55-.87,6.57,2.04,6.57,7.6v13.89Z"/>
  <path class="st0" d="M72.63,146.02c.62,3.26,1.23,6.53,1.85,9.79,1.15-.12,2.31-.23,3.46-.34-2.65-12.17-5.29-24.32-7.94-36.45-1.23.14-2.46.27-3.69.42-2.63,12.73-5.25,25.48-7.88,38.24,1.14-.15,2.27-.29,3.41-.44.63-3.41,1.26-6.81,1.89-10.22,2.96-.36,5.93-.7,8.9-1.01ZM68.21,123.87c1.32,6.55,2.64,13.11,3.97,19.67-2.65.28-5.29.58-7.93.9,1.32-6.86,2.64-13.72,3.96-20.57Z"/>
  <path class="st0" d="M83.48,117.7v37.26c1.17-.1,2.34-.2,3.51-.29v-37.26c-1.17.09-2.34.19-3.51.29Z"/>
  <path class="st0" d="M112.35,125.45c0-5.88-2.32-9.43-9.31-9.08-2.82.14-5.65.31-8.47.49v37.26c1.17-.08,2.34-.15,3.52-.22v-18.31c1.96-.12,3.92-.22,5.88-.32,1.84,6.01,3.67,12.04,5.51,18.07,1.14-.04,2.28-.09,3.43-.12-1.91-6.29-3.83-12.56-5.74-18.83,4.07-1.05,5.19-4.71,5.19-8.94ZM102.86,132.75c-1.59.08-3.18.17-4.77.26v-13.76c1.62-.1,3.24-.19,4.86-.27,4.77-.24,5.97,1.99,5.97,6.58,0,4.6-1.44,6.95-6.06,7.18Z"/>
  <path class="st0" d="M128.32,152.92v-12.38c2.75-8.31,5.5-16.6,8.25-24.87-1.16-.01-2.32-.02-3.47-.02-2.16,6.89-4.32,13.8-6.49,20.72-2.25-6.88-4.51-13.75-6.76-20.6-1.14.02-2.28.05-3.43.08,2.83,8.22,5.65,16.46,8.48,24.73v12.38c1.14-.01,2.29-.02,3.43-.03Z"/>
  <path class="st0" d="M165.41,119.3c0-.87,0-1.75,0-2.62-4.49-.27-8.98-.49-13.47-.66,0,12.42,0,24.84,0,37.26,1.17.04,2.35.09,3.52.14v-18.03c2.76.12,5.52.26,8.28.42v-2.58c-2.76-.16-5.52-.3-8.28-.42v-14.03c3.32.14,6.63.31,9.95.52Z"/>
  <path class="st0" d="M188.47,128.04c0-5.88-2.31-9.74-9.28-10.35-2.82-.24-5.64-.46-8.46-.66v37.26c1.17.08,2.34.17,3.51.26v-18.31c1.96.15,3.91.31,5.87.48,1.83,6.26,3.66,12.54,5.5,18.82,1.14.11,2.28.22,3.42.34-1.91-6.55-3.81-13.08-5.72-19.61,4.06-.49,5.17-4,5.17-8.24ZM179,134.05c-1.59-.14-3.17-.26-4.76-.39v-13.76c1.62.12,3.24.26,4.85.39,4.76.41,5.96,2.8,5.96,7.4,0,4.6-1.43,6.75-6.05,6.35Z"/>
  <path class="st0" d="M208.74,123.72v-2.71c-4.49-.63-8.99-1.2-13.49-1.71v37.26c4.53.52,9.06,1.09,13.58,1.73v-2.62c-3.34-.47-6.69-.9-10.04-1.31v-15.37c2.7.33,5.4.67,8.1,1.04,0-.86,0-1.72,0-2.58-2.7-.37-5.4-.71-8.1-1.04v-13.99c3.32.4,6.63.83,9.94,1.29Z"/>
  <path class="st0" d="M227.92,126.73v-2.71c-4.47-.78-8.95-1.51-13.44-2.18,0,12.42,0,24.84,0,37.26,4.52.68,9.03,1.41,13.53,2.2v-2.62c-3.33-.58-6.66-1.13-10-1.66v-15.37c2.69.42,5.38.86,8.07,1.32,0-.86,0-1.72,0-2.58-2.69-.46-5.38-.9-8.07-1.32v-13.99c3.3.52,6.61,1.06,9.91,1.64Z"/>
</svg>