<?xml version="1.0" encoding="UTF-8"?>
<svg xmlns="http://www.w3.org/2000/svg" version="1.1" viewBox="0 0 329.07 261">
  <!-- Generator: Adobe Illustrator 29.6.0, SVG Export Plug-In . SVG Version: 2.1.1 Build 142)  -->
  <defs>
    <style>
      .st0 {
        fill: none;
        stroke: #d19d86;
        stroke-miterlimit: 10;
      }

      .st1 {
        fill: #333;
      }

      .st2 {
        display: none;
      }
    </style>
  </defs>
  <g id="Layer_2" class="st2">
    <circle class="st0" cx="164.4" cy="130.5" r="130"/>
  </g>
  <g id="Layer_3">
    <g>
      <path class="st1" d="M128.4,53.38c1.64,1.85,3.27,3.77,4.87,5.75,8.67-12.19,19.03-23.03,30.72-32.21-6.67-3.81-13.75-6.99-21.16-9.47-3.84-1.29-7.98-1.3-11.8,0-9.99,3.35-18.93,9.07-27.16,15.71,6.21,2.82,14.32,8.72,24.53,20.22Z"/>
      <path class="st1" d="M186.51,12.18c-4.93-1.92-10.29-2.97-15.9-2.97-6.18,0-12.06,1.28-17.4,3.58,6.13,2.52,12.08,5.5,17.76,8.96,4.98-3.49,10.17-6.69,15.54-9.57Z"/>
      <path class="st1" d="M138.4,65.77c6.88,9.32,13.24,19.72,18.68,30.54.34.59.66,1.18.99,1.77,13.15-17.95,30.02-32.94,49.49-43.88-.55-3.69-1.15-7.38-1.78-11.07-1.09-6.52-2.35-13.04-3.3-19.72,2.95,6.06,5.25,12.39,7.13,18.84.88,3.08,1.66,6.19,2.32,9.33,3.98-2.72,6.92-5.82,9.77-8.83,4.03-4.27,8.47-8.96,15.11-10.95-9.76-6.63-20.39-12.07-31.68-16.11-2.87-1.03-6.04-.85-8.78.46-23.39,11.21-43.38,28.41-57.95,49.62Z"/>
      <path class="st1" d="M146.82,245.66c6.72,1.26,13.65,1.98,20.72,2.07h.02c10.69-1.2,26.53-20.47,31.24-26.51,2.67-3.42,5.4-7.15,8.14-11.09.18-.04.36-.09.54-.13l.19-.04.11-.16c.56-.8,1.11-1.62,1.67-2.44l.7-1.04-1.23.28c-16.1,3.66-32.28,7.93-47.93,12.05l-.62.16c-26.92,7.09-54.76,14.42-82.42,18.8-.19.03-.38.06-.56.08l-.31.05c-.2.04-.39.07-.58.09l-2.89.44c-.81.13-1.37.9-1.25,1.71.12.74.74,1.27,1.48,1.27.08,0,.16,0,.23-.02,0,0,1.51-.23,3.42-.53l.24-.04c.24-.04.5-.08.72-.12,6.15-.97,12.3-2.1,18.44-3.32,6.93,2.75,14.16,5.1,21.62,7.02-5.52-2.37-10.9-5.1-16.14-8.14,3.55-.75,7.1-1.52,10.64-2.33,7.67,4.08,15.86,7.36,24.42,9.71-1.56-4.4-3.03-9.27-4.38-14.51,2.59-.65,5.17-1.3,7.75-1.97,1.62,6.27,3.62,12.78,6.02,18.65ZM173.37,234.76c6.67-6.77,13-13.78,18.88-21.09,2.2-.55,4.4-1.08,6.6-1.62-7.64,8.53-16.18,16.2-25.48,22.71Z"/>
      <path class="st1" d="M161.68,146.56c35.89-9.46,73.01-19.23,109.7-22.14h.12s.1-.07.1-.07c1.43-.87,2.72-1.61,3.93-2.27l2-1.09-1.15.07c3.95-2.11,8.02-3.96,12.2-5.5-4.6-42.87-32.2-76.74-44.91-76.74s-15.41,13.14-31.1,21.74c-23.23,12.79-42.65,31.67-56.12,54.47-.14.22-.28.44-.4.67-.11.18-.22.36-.32.53-.04.08-.09.15-.13.22l-.17.32c-.33.58-.65,1.16-.98,1.74-5.23,9.16-10.32,22.99-12.63,30.13-3.04.78-6.09,1.56-9.14,2.33l1.33-4.18c2.29-7.21,7.7-22.11,13.49-32.25.16-.28.32-.56.48-.85.15-.26.29-.51.44-.77l.11-.22.12-.22c.04-.06.08-.12.11-.18l.07-.13c.09-.15.19-.3.29-.46.19-.35.37-.64.51-.86,1.02-1.72,2.07-3.42,3.16-5.1-17.89-38.46-45.61-66.93-58.32-66.93-19.58,0-45.25,45.97-45.25,88.91,0,13.01,2.1,26.01,5.95,37.77-2.73.25-5.46.47-8.19.65-3.76-12.17-5.76-25.37-5.76-38.42,0-3.57.17-7.21.5-10.87-1.59-.12-3.19-.18-4.81-.18-25.87,0-36.91,11.5-36.91,17.79s18.46,12.69,26.8,28.03c.87,1.62,1.78,3.23,2.7,4.82-.2.26-.32.58-.31.91,0,.83.67,1.5,1.5,1.5,43.7-.17,88-11.85,130.85-23.15l.15-.04ZM253.74,86.79c1.06,9.51,1.19,19.12.46,28.68-.21,2.62-.49,5.25-.83,7.87-2.01.27-4.03.56-6.04.86.35-3.06.65-6.13.89-9.2.72-9.26.99-18.57.83-27.9-.16-9.33-.78-18.67-1.87-28.12,3.5,8.87,5.47,18.32,6.56,27.81ZM237.23,125.85c-1.5.26-3,.52-4.51.8,2.29-11.92,3.59-24.06,4.23-36.37,1.53,11.73,1.58,23.71.27,35.57ZM86.86,99.55c.33-6.74,1.23-13.46,2.64-20.04,1.44-6.58,3.31-13.04,5.85-19.28-.51,6.72-1.35,13.31-1.98,19.89-.67,6.57-1.2,13.12-1.52,19.68-.33,6.56-.46,13.13-.48,19.75-.06,6.61.04,13.25-.18,19.99-1.86-6.48-3.01-13.11-3.75-19.79-.71-6.69-.93-13.46-.58-20.2ZM70.72,155.57c-3.2-11.87-5.11-24.17-5.23-36.57-.14-12.38,1.55-24.83,5.09-36.66,3.61-11.82,8.91-22.99,15.45-33.28-4.32,11.41-8.29,22.81-10.9,34.47-2.59,11.66-3.78,23.53-3.65,35.41.13,11.89,1.55,23.76,3.83,35.55.55,2.76,1.17,5.5,1.82,8.24-1.33.21-2.67.41-4,.61-.86-2.57-1.67-5.15-2.41-7.77Z"/>
      <path class="st1" d="M323.48,117.31c-36.11,0-67.37,20.73-82.55,50.94-18.9,37.65-51.84,87.53-74.39,87.53,37.71,0,72.4-12.92,99.9-34.58,27.49-21.66,47.78-52.06,56.67-87,1.91-7.68,12.17-16.89.37-16.89Z"/>
      <path class="st1" d="M108.91,176.57c-1.12.25-2.24.49-3.36.73,2.91,11.8,5.83,23.57,8.74,35.32,1.06-.24,2.12-.49,3.17-.73,2.81-13.08,5.61-26.17,8.42-39.27-1.1.27-2.21.54-3.31.8-2.21,10.82-4.42,21.63-6.63,32.43-2.35-9.75-4.69-19.51-7.04-29.28Z"/>
      <path class="st1" d="M144.56,170.63c0-.9,0-1.81,0-2.71-4.49,1.16-8.99,2.31-13.48,3.43v37.26c4.52-1.13,9.05-2.28,13.57-3.45v-2.62c-3.34.87-6.69,1.72-10.03,2.56,0-5.12,0-10.24,0-15.37,2.7-.68,5.4-1.37,8.1-2.07v-2.58c-2.7.7-5.4,1.39-8.1,2.07,0-4.66,0-9.32,0-13.99,3.31-.83,6.63-1.68,9.94-2.54Z"/>
      <path class="st1" d="M168.02,173.4c0-.43,0-.86,0-1.29,0-6.85-2.35-10.1-9.02-8.34-7.45,1.96-9.43,7.08-9.43,14.21,0,4.85,0,9.69,0,14.54,0,7.13,2.12,11.32,9.2,9.45,3.82-1.01,5.75-3.4,6.72-6.51.14,1.37.28,2.75.41,4.12.75-.2,1.5-.4,2.25-.59v-18.03c-2.91.77-5.83,1.53-8.74,2.3v2.62c1.84-.48,3.68-.97,5.52-1.45,0,1.46,0,2.91,0,4.37,0,5.52-1.24,9.02-5.84,10.23-4.83,1.27-5.98-1.6-5.98-7.03,0-5.11,0-10.21,0-15.32,0-4.97.78-8.76,5.93-10.12,4.56-1.2,5.66,1.18,5.66,6.42v1.29c1.1-.29,2.21-.58,3.31-.87Z"/>
      <path class="st1" d="M173.13,197.69c1.13-.3,2.27-.59,3.4-.89.63-3.49,1.26-6.98,1.89-10.47,2.96-.77,5.92-1.53,8.88-2.28.61,3.17,1.23,6.34,1.84,9.52,1.15-.29,2.3-.58,3.45-.87-2.64-11.76-5.28-23.52-7.91-35.26-1.23.31-2.45.63-3.68.95-2.62,13.1-5.24,26.2-7.87,39.31ZM186.84,181.63c-2.64.67-5.28,1.35-7.91,2.03,1.32-7.04,2.64-14.09,3.96-21.13,1.32,6.36,2.64,12.73,3.96,19.09Z"/>
      <path class="st1" d="M200.54,153.48c-.84.2-1.69.41-2.53.61,0,12.42,0,24.84,0,37.26,1.01-.25,2.02-.49,3.04-.74v-29.26c3.97,8.8,7.94,17.62,11.92,26.49.83-.19,1.66-.37,2.48-.55,0-12.42,0-24.84,0-37.26-1.01.22-2.02.45-3.04.68v28.94c-3.96-8.76-7.91-17.47-11.87-26.17Z"/>
    </g>
  </g>
</svg>