<?xml version="1.0" encoding="UTF-8"?>
<svg id="Layer_3" xmlns="http://www.w3.org/2000/svg" version="1.1" viewBox="0 0 262.21 219.68">
  <!-- Generator: Adobe Illustrator 29.6.0, SVG Export Plug-In . SVG Version: 2.1.1 Build 142)  -->
  <defs>
    <style>
      .st0 {
        fill: #333;
      }
    </style>
  </defs>
  <path class="st0" d="M243.3,178.62c-37.88-3.75-76.21-15.3-113.29-26.47-41.94-12.64-85.32-25.7-128.47-27.64-.82-.03-1.51.61-1.55,1.43-.04.83.61,1.53,1.43,1.57,13.8.62,27.64,2.4,41.46,4.94-1.75,15.65-2.84,31.83-3.44,48.47-.32,8.98-.5,18.1-.57,27.33,40.92,10.37,91.31,15.24,126.24,7.95,1.18-.39,2.36-.76,3.54-1.14v-.61c.28-12.7.49-25.41.86-38.11.09-3.15.19-6.28.3-9.43,2.56.7,5.13,1.4,7.7,2.08-.1,2.54-.2,5.08-.3,7.61l-1.6,36.43c12.16-3.36,24.74-5.45,38.58-4.47.17-10.08.53-20.49.91-30.99,9.3,1.73,18.61,3.12,27.91,4.04h.09c.79.03,1.47-.56,1.54-1.35.04-.4-.08-.79-.33-1.1-.25-.31-.61-.5-1.01-.54Z"/>
  <path class="st0" d="M261.81,105.21c-.27-.3-.64-.47-1.04-.48-14.68-.63-29.42-2.58-44.12-5.37-.84-30.28-4.63-56.71-15.48-73.22,0,0-.57-20.72-3.34-26.04-1.21,3.89-1.91,7.92-2.36,11.99-.49,4.64-.62,9.33-.61,14.06v.54s-.31.63-.31.63c-2.68,5.49-4.67,11.34-6.23,17.34-1.54,6.01-2.64,12.17-3.61,18.36-1.43,9.34-2.35,18.8-3.11,28.29-2.47-.65-4.94-1.31-7.4-1.98.29-2.8.6-5.59.94-8.38.76-6.36,1.63-12.72,2.78-19.06,1.12-6.34,2.57-12.65,4.41-18.89,1.82-6.05,4.11-12.02,7.12-17.69.34-4.6.8-9.23,1.63-13.84.68-3.88,1.68-7.76,3.12-11.46l-116.26,3.7c-3.8,6.8-5.68,22.12-5.68,22.12-5.18,9.96-9.59,20.41-13.34,31.3-13.95-3.01-27.93-5.37-41.87-6.67-.83-.06-1.55.54-1.63,1.36-.08.82.53,1.56,1.35,1.63,38.46,3.57,77.37,15.29,115,26.63,42.08,12.68,85.59,25.78,128.87,27.66h0c.82.03,1.52-.61,1.55-1.43.02-.4-.12-.78-.39-1.08ZM103.99,16.67c8.72-1.67,17.58-2.58,26.48-2.72,8.89-.13,17.82.52,26.61,2.1,8.79,1.61,17.49,4.05,25.62,8.18l-.13.74-6.46-.98c-2.16-.26-4.31-.56-6.48-.8-4.33-.49-8.65-.91-12.99-1.2-8.68-.59-17.38-.77-26.08-.6-8.7.08-17.4.5-26.07,1.2-4.34.35-8.67.78-13,1.25l-6.5.7-6.48.79-.1-.74c8.27-3.81,16.87-6.2,25.57-7.92Z"/>
  <path class="st0" d="M36.35,107.82c-4.53-.72-5.6-4.46-5.93-9.13-1.04.15-2.07.33-3.11.49.21,6.14,2.85,10.52,8.9,11.49,4.98.8,8.6-1.41,8.8-6.98.15-4.23-2.25-8.01-5.04-11.26-2.11-2.44-4.21-4.87-6.32-7.26-1.87-2.13-2.5-3.79-2.43-5.81.12-3.36,2.33-4.62,5.4-4.13,4.26.69,5.44,3.69,5.64,8.44,1-.09,2.01-.16,3-.25-.26-6.93-3.19-10.09-8.54-10.95-5.04-.8-8.48,1.62-8.66,6.77-.1,2.9.82,5.37,3.12,7.96,2.12,2.42,4.22,4.85,6.33,7.32,2.7,3.13,4.37,5.51,4.25,8.81-.13,3.78-2.11,5.03-5.41,4.49Z"/>
  <path class="st0" d="M54.57,76.12c-1.12-.23-2.26-.46-3.38-.69l-.95,27.08c-.22,6.23,1.51,10.95,9.09,12.61,7.31,1.64,9.56-2.22,9.78-8.43l.95-27.08c-1.11-.27-2.22-.54-3.33-.8l-.95,27.17c-.15,4.38-1.59,7.4-6.35,6.34-4.97-1.1-5.96-4.66-5.81-9.04l.95-27.17Z"/>
  <path class="st0" d="M90.87,96.75c1.09.3,2.19.61,3.28.92l.04-1.29c.24-6.85-1.95-11.39-8.57-13.16-7.39-1.97-9.51,2.17-9.76,9.29l-.51,14.53c-.25,7.13,1.69,12.37,8.71,14.23,3.79,1.01,5.77-.34,6.83-2.92.09,1.45.18,2.9.26,4.34.75.21,1.5.41,2.24.63l.63-18.03c-2.89-.8-5.78-1.6-8.66-2.37l-.09,2.62c1.82.49,3.65.99,5.47,1.49l-.15,4.37c-.19,5.52-1.53,8.34-6.09,7.11-4.8-1.28-5.82-4.73-5.64-10.15l.53-15.31c.17-4.97,1.08-8.37,6.19-7.01,4.51,1.22,5.52,4.2,5.33,9.43l-.05,1.29Z"/>
  <path class="st0" d="M112.69,118.81c.5,3.51.99,7.02,1.47,10.52,1.14.34,2.28.68,3.42,1.02-2.17-13.19-4.35-26.38-6.53-39.56-1.22-.36-2.43-.72-3.64-1.07-3.03,11.65-6.06,23.31-9.1,34.98,1.13.32,2.25.65,3.38.97.74-3.15,1.48-6.29,2.22-9.44,2.92.85,5.85,1.72,8.79,2.58ZM109.11,94.9c1.07,7.08,2.15,14.16,3.21,21.24-2.6-.77-5.22-1.53-7.83-2.29,1.54-6.32,3.08-12.63,4.62-18.95Z"/>
  <path class="st0" d="M141.42,109.45c.21-5.88-1.95-10.14-8.83-12.22-2.78-.84-5.55-1.67-8.34-2.51l-1.3,37.24c1.16.35,2.31.7,3.47,1.04l.64-18.3c1.92.59,3.85,1.17,5.78,1.74,1.59,6.65,3.19,13.29,4.78,19.93,1.13.34,2.25.68,3.38,1.02-1.66-6.91-3.33-13.82-4.99-20.74,4.04.33,5.27-2.97,5.41-7.21ZM131.84,113.54c-1.56-.47-3.12-.95-4.68-1.41l.48-13.75c1.59.49,3.19.96,4.78,1.44,4.69,1.41,5.79,4.02,5.63,8.62-.16,4.6-1.65,6.48-6.21,5.11Z"/>
  <path class="st0" d="M171.87,111.36l.09-2.62c-4.42-1.22-8.84-2.48-13.26-3.75l-1.3,37.24c1.15.34,2.31.67,3.46,1l.63-18.03c2.72.79,5.44,1.55,8.16,2.31l.09-2.58c-2.73-.76-5.44-1.52-8.16-2.3l.49-14.02c3.27.93,6.54,1.85,9.8,2.75Z"/>
  <path class="st0" d="M194.4,124.08c.21-5.89-1.95-9.98-8.85-11.74-2.79-.71-5.56-1.43-8.35-2.18l-1.3,37.24c1.16.31,2.31.62,3.47.92l.64-18.3c1.92.51,3.86,1.01,5.79,1.5,1.59,6.55,3.19,13.1,4.79,19.65,1.13.27,2.25.54,3.38.81-1.66-6.79-3.33-13.59-5-20.41,4.05.12,5.28-3.27,5.42-7.5ZM191.01,123.26c-.16,4.6-1.65,6.57-6.21,5.41-1.57-.4-3.13-.81-4.7-1.21l.48-13.75c1.6.42,3.19.83,4.79,1.24,4.7,1.19,5.8,3.72,5.64,8.32Z"/>
  <path class="st0" d="M214.73,121.67l.09-2.71c-4.47-.87-8.93-1.79-13.39-2.8l-1.3,37.25c4.49,1.01,8.98,1.94,13.48,2.8l.09-2.62c-3.33-.64-6.65-1.31-9.97-2.03l.54-15.36c2.68.58,5.36,1.14,8.05,1.66l.09-2.58c-2.68-.52-5.37-1.08-8.05-1.66l.49-13.97c3.29.71,6.58,1.38,9.88,2.02Z"/>
  <path class="st0" d="M233.85,124.83l.09-2.71c-4.47-.62-8.94-1.32-13.41-2.11l-1.3,37.24c4.5.8,9,1.51,13.51,2.12l.09-2.62c-3.34-.46-6.66-.96-9.98-1.52l.54-15.35c2.69.44,5.36.86,8.05,1.24l.09-2.58c-2.69-.37-5.37-.8-8.05-1.24l.49-13.98c3.29.56,6.59,1.05,9.88,1.51Z"/>
</svg>