<?xml version="1.0" encoding="UTF-8"?>
<svg id="Layer_1" xmlns="http://www.w3.org/2000/svg" version="1.1" viewBox="0 0 272.97 267.19">
  <!-- Generator: Adobe Illustrator 29.6.0, SVG Export Plug-In . SVG Version: 2.1.1 Build 142)  -->
  <defs>
    <style>
      .st0 {
        fill: #333;
      }
    </style>
  </defs>
  <path class="st0" d="M271.47,136h-23.63c1.54-2.95,2.69-6.17,3.36-9.6l1.79-9.21c-15.94-3.09-31.46,5-38.43,18.81h-1.21c.79-6.12,1.42-12.48,1.88-19.04,19.42,1.57,36.5-12.82,38.2-32.26l.82-9.34c-19.52-1.71-36.73,12.73-38.43,32.25l-.08.93c.31-6.44.47-13.05.47-19.81v-3.81c14.95-16.29,14.55-41.63-1.25-57.42-15.78,15.78-16.2,41.12-1.25,57.41v3.82c0,3.62-.06,7.18-.14,10.71-1.7-17.15-15.71-30.96-33.45-31.89l-.49,9.36c-1.02,19.48,13.87,36.1,33.3,37.26-.48,7.55-1.18,14.84-2.09,21.82h-.94c-1.49-15.73-13.44-29.06-29.76-31.65l-1.47,9.26c-1.26,8,.25,15.79,3.83,22.39h-12.09c1.65-4.1,2.57-8.58,2.57-13.27v-9.38c-15.07,0-27.94,9.4-33.08,22.65h-2.14v-15.31c19.48-.14,35.22-15.96,35.22-35.47v-9.38c-18.18,0-33.16,13.68-35.22,31.3v-23.96c19.48-.14,35.22-15.96,35.22-35.47v-9.38c-18.18,0-33.16,13.68-35.22,31.3v-12.24c14.95-16.29,14.54-41.63-1.25-57.42-15.79,15.79-16.2,41.12-1.25,57.41v12.22c-2.07-17.62-17.05-31.29-35.22-31.29v9.38c0,19.51,15.75,35.33,35.22,35.47v23.94c-2.07-17.62-17.05-31.29-35.22-31.29v9.38c0,19.51,15.75,35.33,35.22,35.47v15.31h-2.13c-5.14-13.25-18.02-22.65-33.08-22.65v9.38c0,4.69.92,9.17,2.57,13.27h-12.08c3.57-6.61,5.08-14.39,3.82-22.39l-1.47-9.26c-16.32,2.59-28.27,15.93-29.76,31.65h-.94c-.91-6.98-1.61-14.27-2.09-21.82,19.43-1.16,34.32-17.79,33.3-37.26l-.49-9.36c-17.75.93-31.76,14.75-33.45,31.91-.09-3.54-.14-7.11-.14-10.74v-3.82c14.95-16.29,14.53-41.63-1.25-57.41-15.79,15.79-16.2,41.12-1.25,57.42v3.81c0,6.73.16,13.32.46,19.73l-.07-.85c-1.71-19.52-18.91-33.96-38.43-32.25l.82,9.34c1.7,19.44,18.78,33.84,38.2,32.26.46,6.56,1.09,12.91,1.88,19.03h-1.71c-6.96-13.81-22.48-21.9-38.43-18.81l1.79,9.21c.67,3.43,1.82,6.65,3.36,9.6H1.5c-.83,0-1.5.67-1.5,1.5s.67,1.5,1.5,1.5h269.97c.83,0,1.5-.67,1.5-1.5s-.67-1.5-1.5-1.5Z"/>
  <path class="st0" d="M245.86,211H27.14c-.83,0-1.5.67-1.5,1.5s.67,1.5,1.5,1.5h16.25c11.73,10.48,29.43,12.19,43.13,3.17,4.18,6.46,8.6,12.01,13.07,16.77-14.79-12.53-36.94-10.88-49.69,3.79l7.08,6.15c14.65,12.73,36.77,11.31,49.68-3.09,9.43,8.34,18.73,13.51,26.31,16.7-11.08,3.7-18.87,3.76-18.96,3.76-.69,0-1.25.56-1.25,1.25,0,.69.56,1.25,1.25,1.25.4,0,9.04-.06,21.25-4.4v6.59c0,.69.56,1.25,1.25,1.25s1.25-.56,1.25-1.25v-6.59c12.23,4.35,20.86,4.4,21.26,4.4.69,0,1.25-.56,1.25-1.25s-.56-1.25-1.25-1.25c-.09,0-7.88-.05-18.96-3.76,7.58-3.19,16.87-8.36,26.3-16.7,12.91,14.4,35.03,15.82,49.68,3.09l7.08-6.15c-12.75-14.67-34.9-16.32-49.69-3.8,4.47-4.76,8.88-10.31,13.07-16.76,13.7,9.02,31.4,7.31,43.13-3.17h16.25c.83,0,1.5-.67,1.5-1.5s-.67-1.5-1.5-1.5ZM137.75,214h2c-.98,2.95-1.59,6.08-1.76,9.34l-.24,4.58v-13.92ZM135.25,227.93l-.24-4.59c-.17-3.26-.78-6.39-1.76-9.34h2v13.93ZM135.25,232.7v23.02c-.26-.1-.51-.2-.77-.31l-.18-.07c-13.06-5.42-31.62-16.98-46.83-41.34h14.9c6.25,11.68,18.81,19.34,32.89,18.7ZM137.75,232.7c14.08.64,26.64-7.03,32.89-18.7h14.9c-15.21,24.36-33.76,35.92-46.81,41.34l-.2.08c-.26.11-.51.21-.77.31v-23.02Z"/>
  <path class="st0" d="M44.98,167.43v-1.29c0-6.86-2.35-10.72-9.02-10.72-7.45,0-9.43,4.6-9.43,11.73v14.54c0,7.13,2.12,11.87,9.2,11.87,3.82,0,5.75-1.89,6.72-4.74l.41,4.23h2.25v-18.03h-8.74v2.62h5.52v4.37c0,5.52-1.24,8.69-5.84,8.69-4.83,0-5.98-3.17-5.98-8.6v-15.32c0-4.97.78-8.56,5.93-8.56,4.55,0,5.66,2.67,5.66,7.91v1.29h3.31Z"/>
  <polygon class="st0" points="52.1 155.79 52.1 193.06 66.18 193.06 66.18 190.44 55.6 190.44 55.6 155.79 52.1 155.79"/>
  <path class="st0" d="M70.18,155.79v27.1c0,6.21,1.89,10.63,9.52,10.63s9.48-4.42,9.48-10.63v-27.1h-3.36v27.19c0,4.37-1.33,7.73-6.12,7.73s-6.12-3.36-6.12-7.73v-27.19h-3.4Z"/>
  <polygon class="st0" points="104.31 193.06 104.31 158.51 111.17 158.51 111.17 155.79 93.78 155.79 93.78 158.51 100.82 158.51 100.82 193.06 104.31 193.06"/>
  <polygon class="st0" points="129.61 158.51 129.61 155.79 116.13 155.79 116.13 193.06 129.7 193.06 129.7 190.44 119.67 190.44 119.67 175.07 127.77 175.07 127.77 172.49 119.67 172.49 119.67 158.51 129.61 158.51"/>
  <polygon class="st0" points="150.36 193.06 152.84 193.06 152.84 155.79 149.8 155.79 149.8 184.73 137.94 155.79 135.41 155.79 135.41 193.06 138.44 193.06 138.44 163.8 150.36 193.06"/>
  <polygon class="st0" points="183.94 158.41 183.94 155.79 170.55 155.79 170.55 193.06 174.05 193.06 174.05 175.02 182.28 175.02 182.28 172.45 174.05 172.45 174.05 158.41 183.94 158.41"/>
  <path class="st0" d="M206.89,165.27c0-5.89-2.3-9.48-9.25-9.48h-8.42v37.26h3.5v-18.31h5.84l5.47,18.31h3.4l-5.71-19.05c4.05-.87,5.15-4.51,5.15-8.74ZM197.46,172.17h-4.74v-13.76h4.83c4.74,0,5.93,2.25,5.93,6.86s-1.43,6.9-6.03,6.9Z"/>
  <polygon class="st0" points="227.13 158.51 227.13 155.79 213.65 155.79 213.65 193.06 227.22 193.06 227.22 190.44 217.19 190.44 217.19 175.07 225.29 175.07 225.29 172.49 217.19 172.49 217.19 158.51 227.13 158.51"/>
  <polygon class="st0" points="246.36 158.51 246.36 155.79 232.88 155.79 232.88 193.06 246.45 193.06 246.45 190.44 236.42 190.44 236.42 175.07 244.52 175.07 244.52 172.49 236.42 172.49 236.42 158.51 246.36 158.51"/>
</svg>