<?xml version="1.0" encoding="UTF-8"?>
<svg xmlns="http://www.w3.org/2000/svg" version="1.1" viewBox="0 0 301.03 281">
  <!-- Generator: Adobe Illustrator 29.6.0, SVG Export Plug-In . SVG Version: 2.1.1 Build 142)  -->
  <defs>
    <style>
      .st0 {
        fill: none;
        stroke: #d19d86;
        stroke-miterlimit: 10;
      }

      .st1 {
        fill: #333;
      }

      .st2 {
        display: none;
      }
    </style>
  </defs>
  <g id="Layer_2" class="st2">
    <circle class="st0" cx="159.4" cy="140.5" r="130"/>
    <circle class="st0" cx="159.4" cy="140.5" r="140"/>
  </g>
  <g id="Layer_3">
    <g>
      <path class="st1" d="M104.09,44.85c5.59,1.63,10.56,4.9,14.29,9.33,1.5-.82,3.05-1.53,4.65-2.1l-13.21-33.67c-1.51-3.85-5.86-5.75-9.72-4.24s-5.75,5.87-4.24,9.72l8.23,20.96Z"/>
      <path class="st1" d="M53.93,175.39c-3.43,2.2-7.48,3.42-11.75,3.42-2.77,0-5.56-.55-8.14-1.6.38,1.91.94,3.75,1.67,5.51h20.85c-1.2-2.26-2.11-4.7-2.63-7.33Z"/>
      <rect class="st1" x="119.34" y="268.22" width="80" height="10"/>
      <path class="st1" d="M299.98,134.93c-47.07-14.96-94.77-7.17-140.89.36-17.5,2.86-35.22,5.75-53.04,7.41,1.54.68,3.14,1.43,4.8,2.24.79.39,1.59.79,2.4,1.21,1.79.92,3.56,1.86,5.31,2.82,4.44-2.24,9.46-3.5,14.78-3.5,1.97,0,3.9.17,5.8.51.83-1.7,1.77-3.33,2.8-4.89,3.96-.62,7.91-1.25,11.83-1.89-4.61,4.52-8.07,10.23-9.86,16.62-3.21-1.51-6.79-2.35-10.57-2.35-1.99,0-3.92.23-5.78.68,15.96,9.62,29.88,20.3,39.79,28.57h119.33c.64-2.21.99-4.56.99-6.98,0-13.8-11.2-25-25-25-10.88,0-20.14,6.96-23.56,16.66-5.45-5.69-13.13-9.22-21.62-9.22-.26,0-.52,0-.78.02-2.35-11.2-9.72-20.55-19.64-25.62,4.05-.52,8.1-.99,12.17-1.4,6.06,5.09,10.84,11.72,13.6,19.38,4.94.68,9.64,2.32,13.88,4.83,6.14-7.82,15.65-12.64,25.96-12.64,3.75,0,7.36.63,10.72,1.79.03-.51.05-1.02.05-1.54,0-4.19-1.04-8.13-2.86-11.6,9.52,1.33,19.02,3.39,28.49,6.4.79.25,1.64-.19,1.89-.97.25-.79-.19-1.64-.98-1.89Z"/>
      <path class="st1" d="M54.42,163.34c1.85-3.6,6.02-3.33,9.13-2.51-3.73,8.84-2.22,15.89,2.49,21.89h88.63c-13.39-10.55-28.89-21.14-45.07-29.45-17.64-9.06-33.67-13.41-43.51,2.63-2.48-2.05-5.13-5.29-3.3-8.87,3.47-6.75.81-15.04-5.95-18.51-2.18-1.12-4.52-1.6-6.81-1.51-.42-4.51-3.06-8.71-7.4-10.94-6.75-3.47-15.05-.8-18.52,5.95-.12.24-.23.48-.34.72-1.04-1.12-2.3-2.08-3.73-2.81-6.75-3.47-15.05-.8-18.51,5.95-3.48,6.76-.81,15.04,5.95,18.51,1.43.74,2.94,1.2,4.46,1.4-.14.22-.26.46-.39.69-3.47,6.76-.8,15.05,5.96,18.52,4.33,2.22,9.29,1.92,13.2-.36,1.26,1.91,3.01,3.53,5.2,4.65,6.76,3.47,15.04.81,18.51-5.95Z"/>
      <path class="st1" d="M81.77,251.77c7.22,5.78,16.22,8.94,25.51,8.94h104.12c9.29,0,18.29-3.16,25.51-8.94,19.58-15.68,34.51-36.81,42.43-61.06H39.34c7.92,24.25,22.85,45.37,42.43,61.06Z"/>
      <path class="st1" d="M57.83,88.11c-1.12-.1-2.24-.21-3.36-.33,2.91,12.73,5.83,25.39,8.74,38,1.06.07,2.12.12,3.17.18,2.81-12.29,5.61-24.63,8.42-37.02-1.1-.01-2.21-.03-3.31-.06-2.21,10.23-4.42,20.44-6.62,30.6-2.35-10.42-4.69-20.88-7.04-31.37Z"/>
      <path class="st1" d="M93.48,91.2v-2.71c-4.49.26-8.99.42-13.48.46v37.26c4.52-.04,9.05-.2,13.57-.46v-2.62c-3.34.19-6.69.33-10.03.41v-15.37c2.7-.06,5.4-.16,8.1-.3v-2.58c-2.7.14-5.4.24-8.1.3v-13.99c3.31-.08,6.62-.21,9.94-.4Z"/>
      <path class="st1" d="M116.94,98v-1.29c0-6.87-2.35-10.41-9.02-9.73-7.45.71-9.43,5.4-9.43,12.54v14.54c0,7.12,2.12,11.76,9.2,11.08,3.82-.38,5.75-2.49,6.72-5.45.14,1.4.28,2.79.41,4.19.75-.09,1.5-.17,2.25-.26,0-6.01,0-12.02,0-18.03-2.91.35-5.83.67-8.74.96,0,.87,0,1.75,0,2.62,1.84-.18,3.68-.38,5.52-.59v4.37c0,5.51-1.24,8.85-5.84,9.31-4.83.47-5.98-2.64-5.98-8.06v-15.32c0-4.98.78-8.6,5.93-9.1,4.56-.46,5.66,2.07,5.66,7.32v1.29c1.1-.12,2.21-.25,3.31-.38Z"/>
      <path class="st1" d="M137.51,86.26c0-.9,0-1.81,0-2.71-4.49.68-8.99,1.33-13.48,1.93v37.26c4.52-.6,9.05-1.25,13.57-1.94,0-.87,0-1.75,0-2.62-3.34.51-6.69,1-10.03,1.46,0-5.12,0-10.24,0-15.37,2.7-.37,5.4-.77,8.1-1.17,0-.86,0-1.72,0-2.58-2.7.4-5.4.79-8.1,1.17,0-4.66,0-9.32,0-13.99,3.31-.46,6.63-.94,9.94-1.45Z"/>
      <path class="st1" d="M151.4,118.62v-34.55c2.28-.37,4.57-.74,6.85-1.12v-2.71c-5.8.95-11.59,1.89-17.39,2.79v2.71c2.35-.36,4.69-.73,7.04-1.11,0,11.52,0,23.03,0,34.55,1.17-.19,2.33-.37,3.5-.56Z"/>
      <path class="st1" d="M160.09,117.21c1.13-.19,2.27-.37,3.4-.56.63-3.43,1.26-6.86,1.89-10.29,2.96-.48,5.92-.96,8.88-1.42.61,3.23,1.23,6.46,1.84,9.69,1.15-.18,2.3-.36,3.45-.53-2.64-12.02-5.28-24.02-7.91-36.02-1.23.2-2.45.39-3.68.59-2.62,12.84-5.24,25.69-7.87,38.54ZM173.8,102.48c-2.64.42-5.28.84-7.91,1.27,1.32-6.92,2.64-13.83,3.96-20.74,1.32,6.49,2.64,12.98,3.96,19.47Z"/>
      <path class="st1" d="M202.64,83.13c0-5.88-2.3-9.23-9.25-8.31-2.81.38-5.61.78-8.42,1.19v37.26c1.17-.17,2.33-.34,3.5-.51v-18.31c1.95-.28,3.9-.55,5.84-.81,1.82,5.86,3.65,11.73,5.47,17.61,1.13-.14,2.27-.28,3.4-.41-1.9-6.13-3.8-12.24-5.7-18.35,4.05-1.39,5.15-5.14,5.15-9.37ZM193.21,91.23c-1.58.21-3.16.43-4.74.66v-13.76c1.61-.23,3.22-.45,4.83-.67,4.74-.63,5.93,1.49,5.93,6.08,0,4.6-1.43,7.07-6.03,7.68Z"/>
      <path class="st1" d="M213.03,109.82v-37.26c-1.17.11-2.33.22-3.5.34v37.26c1.17-.12,2.33-.23,3.5-.34Z"/>
      <path class="st1" d="M218.55,109.35c1.13-.09,2.27-.17,3.4-.25.63-3.37,1.26-6.74,1.89-10.1,2.96-.18,5.92-.32,8.88-.42.61,3.31,1.23,6.62,1.84,9.93,1.15-.03,2.3-.05,3.45-.06-2.64-12.39-5.28-24.74-7.91-37.05-1.23.05-2.45.11-3.68.17-2.62,12.56-5.24,25.16-7.87,37.78ZM232.26,96.07c-2.64.09-5.28.21-7.91.37,1.32-6.78,2.64-13.55,3.96-20.32,1.32,6.64,2.64,13.29,3.96,19.95Z"/>
      <path class="st1" d="M245.97,71.22c-.84-.02-1.69-.03-2.53-.04v37.26c1.01,0,2.02.03,3.04.05v-29.26c3.97,9.84,7.94,19.79,11.92,29.85.83.06,1.66.13,2.48.21v-37.26c-1.01-.09-2.02-.17-3.04-.25,0,9.65,0,19.29,0,28.94-3.96-9.94-7.91-19.77-11.87-29.49Z"/>
      <path class="st1" d="M39.68,68.83c12.41,2.27,24.86,3.19,37.32,3.19,27.68,0,55.34-4.55,82.37-9,36.3-5.97,73.83-12.15,110.64-7.11.75.11,1.45-.42,1.55-1.18.1-.75-.42-1.45-1.18-1.55-15.67-2.14-31.42-2.28-47.14-1.28l5.03-20.43c.99-4.02-1.47-8.08-5.5-9.07-4.02-.99-8.08,1.47-9.07,5.49l-6.24,25.37c-3.4.36-6.81.77-10.2,1.2-4.29-12.74-16.32-21.91-30.5-21.91-15.5,0-28.43,10.94-31.49,25.52-.23-.02-.45-.02-.67-.02-7.29,0-13.88,3.03-18.56,7.91-2.94-8.32-10.88-14.3-20.22-14.3-10.52,0-19.26,7.59-21.08,17.59-11.55-.11-23.09-1.03-34.57-3.13-.75-.14-1.46.36-1.6,1.11-.14.75.36,1.46,1.11,1.6Z"/>
    </g>
  </g>
</svg>