<?xml version="1.0" encoding="UTF-8"?>
<svg id="Logo" xmlns="http://www.w3.org/2000/svg" version="1.1" viewBox="0 0 296.59 361.12">
  <!-- Generator: Adobe Illustrator 29.6.0, SVG Export Plug-In . SVG Version: 2.1.1 Build 142)  -->
  <defs>
    <style>
      .st0 {
        fill: #333;
      }
    </style>
  </defs>
  <path class="st0" d="M296.59,250.34l-2.73-1.77s-22.66,27.48-82.88,29.94v-139.73c0-3.16,2.56-5.73,5.73-5.73h4.77v-5.73h-52.53v5.73h4.77c3.17,0,5.73,2.57,5.73,5.73v138.26c-20.12-2.95-36.81-9.56-52.53-17.03v-121.23c0-3.16,2.56-5.73,5.73-5.73h4.78v-5.73h-52.54v5.73h4.77c3.17,0,5.74,2.57,5.74,5.73v105.65c-16.12-7.64-33-14.17-53.37-16.45V11.46c0-3.16,2.56-5.73,5.73-5.73h4.77V0H0v5.73h4.77c3.17,0,5.73,2.57,5.73,5.73v210.87c0,3.17-2.56,5.73-5.73,5.73H0v5.73h26.26c23.7,0,46.04,13.48,69.14,29.04v86.82c0,3.17-2.57,5.73-5.74,5.73h-4.77v5.73h52.54v-5.73h-4.78c-3.17,0-5.73-2.56-5.73-5.73v-65.79c16.48,10.32,33.77,19.25,52.53,23.21v42.58c0,3.17-2.56,5.73-5.73,5.73h-4.77v5.73h52.53v-5.73h-4.77c-3.17,0-5.73-2.56-5.73-5.73v-40.84c55.86-4.48,81.66-42.24,85.61-58.48Z"/>
</svg>