<?xml version="1.0" encoding="UTF-8"?>
<svg xmlns="http://www.w3.org/2000/svg" version="1.1" viewBox="0 0 1476.05 346.31">
  <!-- Generator: Adobe Illustrator 29.6.0, SVG Export Plug-In . SVG Version: 2.1.1 Build 142)  -->
  <defs>
    <style>
      .st0 {
        fill: #036;
      }
    </style>
  </defs>
  <g id="Logo">
    <g>
      <path class="st0" d="M967.56.28c-34.55,0-62.57,28.02-62.57,62.57h.01v108.65h-.01c0,34.55,28.01,62.57,62.57,62.57s62.56-28.01,62.57-62.56V62.85c0-34.55-28.01-62.57-62.57-62.57ZM998.6,193.27c0,19.38-13.89,35.07-31.04,35.07s-31.05-15.69-31.05-35.07V41.09c0-19.38,13.9-35.08,31.05-35.08s31.04,15.7,31.04,35.08v152.18Z"/>
      <path class="st0" d="M612.97,6.01h4.77c3.17,0,5.73,2.57,5.73,5.73v210.87c0,3.17-2.56,5.73-5.73,5.73h-4.77v5.73h114.15v-42.99h-5.73c0,20.58-16.68,37.26-37.26,37.26h-29.13v-74.59h47.76v-7.64h-47.76V6.01h33.91c17.94,0,32.48,14.54,32.48,32.48h5.73V.28h-114.15v5.73Z"/>
      <path class="st0" d="M1437.84,6.01c17.94,0,32.48,14.54,32.48,32.48h5.73V.28h-114.15v5.73h4.78c3.16,0,5.73,2.57,5.73,5.73v210.87c0,3.17-2.57,5.73-5.73,5.73h-4.78v5.73h114.15v-42.99h-5.73c0,20.58-16.68,37.26-37.26,37.26h-29.13v-74.59h47.76v-7.64h-47.76V6.01h33.91Z"/>
      <path class="st0" d="M1147.62,6.01h4.78c3.16,0,5.73,2.57,5.73,5.73v181.53c-.01,19.38-13.9,35.07-31.05,35.07s-31.04-15.69-31.04-35.07V11.74c0-3.16,2.56-5.73,5.73-5.73h4.78V.28h-52.54v5.73h4.78c3.16,0,5.73,2.57,5.73,5.73v159.76h-.01c0,34.55,28.01,62.57,62.57,62.57s62.56-28.01,62.57-62.56V11.74c0-3.16,2.57-5.73,5.73-5.73h4.78V.28h-52.54v5.73Z"/>
      <path class="st0" d="M828.58,6.01h4.77c3.17,0,5.73,2.57,5.73,5.73v134.37h-52.53V11.74c0-3.16,2.56-5.73,5.73-5.73h4.78V.28h-52.54v5.73h4.77c3.17,0,5.74,2.57,5.74,5.73v210.87c0,3.17-2.57,5.73-5.74,5.73h-4.77v5.73h52.54v-5.73h-4.78c-3.17,0-5.73-2.56-5.73-5.73v-68.86h52.53v68.86c0,3.17-2.56,5.73-5.73,5.73h-4.77v5.73h52.53v-5.73h-4.77c-3.17,0-5.73-2.56-5.73-5.73V11.74c0-3.16,2.56-5.73,5.73-5.73h4.77V.28h-52.53v5.73Z"/>
      <path class="st0" d="M294.8,164.83c11.92-7.32,25.65-11.19,39.72-11.19.99,0,1.98.02,2.96.06,0,0-14.9,70.1-14.9,70.11-.55,2.59-2.85,4.53-5.61,4.53h-7.13v5.73h31.52v-5.73h-8.39c-1.58,0-2.87-1.28-2.87-2.86,0-.16.02-.33.04-.48l15.01-70.61c30.47,4.27,55.21,26.7,62.88,55.98l3.11,14.65c.03.15.04.3.04.46,0,1.58-1.29,2.86-2.87,2.86h-6.85v5.73h52.53v-5.73h-5.17c-2.75,0-5.05-1.94-5.6-4.53,0-.01-47.52-223.53-47.52-223.53h-32.22l3.3,15.58-27.71,130.38c-1.51-.09-3.02-.13-4.55-.13-15.42,0-30.48,4.23-43.57,12.24l-1.58.98,3.76,6.53,1.67-1.03ZM370.68,34.25l30.89,145.65c-12.92-17.4-32.45-29.61-54.85-32.9l23.96-112.75Z"/>
      <path class="st0" d="M591.55,224.65s-49.45-135.86-49.45-135.86l40.58-79.64s.03-.06.05-.09c.96-1.81,2.87-3.05,5.06-3.05h7.51V.28h-31.53v5.73h7.26c1.58,0,2.86,1.28,2.86,2.87,0,.47-.11.91-.31,1.3l-67.44,132.36V11.74c0-3.16,2.57-5.73,5.73-5.73h4.78V.28h-52.54v5.73h4.78c3.16,0,5.73,2.57,5.73,5.73v210.87c0,3.17-2.57,5.73-5.73,5.73h-4.78v5.73h52.54v-5.73h-4.78c-3.16,0-5.73-2.56-5.73-5.73v-63.24l16.4-32.17s35.42,97.33,35.42,97.34c.11.29.16.61.16.94,0,1.58-1.28,2.86-2.87,2.86h-5.17v5.73h52.54v-5.73h-5.71c-2.45,0-4.54-1.53-5.36-3.69Z"/>
      <path class="st0" d="M1247.68,46.65c0-20.05,17.08-35.81,38.14-35.81,15.76,0,28.62,7.05,36.59,18.12.29.44.46.97.46,1.54,0,1.48-1.13,2.7-2.58,2.85h0c-8.45.83-15.06,7.96-15.06,16.63,0,9.23,7.48,16.72,16.71,16.72s16.72-7.49,16.72-16.72c0-1.17-.12-2.32-.36-3.42-.04-.18-.15-.69-.17-.76-5.68-25.99-29.89-45.53-58.89-45.53-33.23,0-60.18,25.67-60.18,57.32,0,57.8,96.67,69.45,96.67,122.16,0,23.7-19.21,42.42-42.91,42.42-20.89,0-37.63-11.92-45.45-29.41-.01-.03-.03-.06-.04-.1-.14-.33-.22-.71-.22-1.1,0-1.58,1.28-2.87,2.87-2.87.05,0,.1.01.16.01.37.03.74.04,1.11.04,9.24,0,16.72-7.49,16.72-16.72s-7.48-16.72-16.72-16.72-16.71,7.49-16.71,16.72c0,.12.04,1.13.06,1.4,2.21,33.87,30.38,60.65,64.81,60.65s64.95-29.08,64.95-64.95c0-63.05-96.68-75.49-96.68-122.47Z"/>
      <path class="st0" d="M424.43,278.97c-70.27,0-99.93-43.95-160.25-50.71V11.74c0-3.16,2.56-5.73,5.73-5.73h4.77V.28h-52.53v5.73h4.77c3.17,0,5.73,2.57,5.73,5.73v210.87c0,3.17-2.56,5.73-5.73,5.73h-4.77v5.73h26.26c56.09,0,104.5,75.47,173.63,75.47,63.56,0,92.5-41.64,96.7-58.92l-2.73-1.77s-24.83,30.12-91.58,30.12Z"/>
    </g>
    <path class="st0" d="M198.94,101.26c-.98-.52-2.19-.16-2.72.82-.14.25-13.93,25.38-37.75,25.38-4.18,0-7.54-1.44-9.72-4.16-.88-1.1-1.57-2.41-2.05-3.88,20.87-3.69,31.36-16.15,30.63-26.39-.43-6.05-4.82-9.96-11.2-9.96-10.19,0-20.52,10.44-23.52,23.76-.84,3.72-1.01,7.22-.55,10.36-3.62,4.13-10.12,10.27-16.83,10.27-1.17,0-1.47-.4-1.58-.55-1.64-2.18.66-10.19,2.51-16.62,2.71-9.44,5.52-19.21,1.77-24.19-1.51-2.01-3.88-3.03-7.03-3.03-11.98,0-23.99,12.56-31.84,25.26,2.46-9.89,5.83-22.1,10.03-34.24,3.93-11.38,8-21.05,12.15-28.95,7.56,2.77,15.48,4.59,23.95,4.59,10.52,0,21.87-6.75,21.87-17.66,0-9.66-7.72-16.68-18.36-16.68-11.29,0-21.07,10.32-29.24,24.75-7.3-2.95-14.32-6.73-21.24-10.45-.26-.14-.52-.28-.79-.42,6.77-13.16,14.9-23,25.41-25.29,1.08-.24,1.77-1.3,1.53-2.39-.24-1.08-1.3-1.77-2.39-1.53-11.88,2.59-20.8,13.23-28.08,27.32-12.94-6.88-26.35-13.31-41.02-13.31C19.24,14.06,0,33.31,0,56.96c0,17.45,10.42,33.02,26.55,39.67,1.03.42,2.2-.07,2.62-1.09.42-1.02-.07-2.2-1.09-2.62-14.62-6.03-24.06-20.14-24.06-35.96,0-21.44,17.44-38.88,38.88-38.88,13.81,0,26.29,6,39.23,12.89-6.35,13.27-11.45,29.06-16.24,43.94-6.42,19.92-12.47,38.73-20.04,46.29-8.33,8.33-21.88,8.33-30.2,0-.78-.78-2.06-.78-2.84,0-.78.78-.78,2.05,0,2.84,4.95,4.95,11.44,7.42,17.94,7.42s12.99-2.47,17.94-7.42c8.25-8.25,14.17-26.62,21.02-47.9,4.74-14.7,9.77-30.32,15.94-43.29.22.12.44.24.67.36,6.89,3.71,13.89,7.47,21.2,10.47-15.26,29.05-24.45,71.53-26.71,82.76-.24.95-.41,1.83-.52,2.64,0,0,0,.02,0,.02,0,0,0,0,0,0,0,.04-.01.08-.02.12,0,.05,0,.09,0,.14,0,.07,0,.14,0,.21,0,.06.01.13.02.19,0,.07.02.13.04.2.02.06.04.12.06.18.02.06.04.12.07.18.03.06.06.11.09.17.03.06.07.11.1.16.04.05.08.1.12.14.04.05.09.1.13.14.05.04.1.08.15.12.05.04.1.08.16.11.05.03.11.06.17.09.06.03.12.06.18.08.06.02.13.04.19.06.05.01.09.03.14.04.02,0,.05,0,.07,0,.02,0,.04.01.06.01.08,0,.16.01.23.01,0,0,.01,0,.02,0,.12,0,.24-.01.36-.03.03,0,.06-.02.09-.03.08-.02.17-.04.25-.07.04-.02.08-.04.12-.06.07-.03.13-.06.2-.1.04-.02.08-.05.12-.08.06-.04.11-.08.17-.12.04-.03.07-.07.11-.1.05-.05.1-.09.14-.15.03-.04.06-.08.09-.13.04-.05.07-.11.11-.16.03-.05.05-.1.07-.15.03-.06.05-.12.07-.18.02-.05.03-.11.05-.16.01-.04.03-.08.04-.13,0-.05.2-1.06.56-2.83,3.47-13.3,20.75-39.93,36.1-39.93,2.75,0,3.55,1.08,3.82,1.43,2.54,3.38-.21,12.96-2.42,20.67-2.52,8.78-4.7,16.37-1.86,20.15.74.98,2.17,2.15,4.79,2.15,6.98,0,13.36-4.79,18.05-9.68.6,1.47,1.37,2.81,2.33,4.01,2.97,3.71,7.41,5.67,12.86,5.67,10.9,0,21.51-4.77,30.67-13.8,6.85-6.75,10.46-13.42,10.61-13.7.52-.98.16-2.19-.82-2.72ZM138.7,19.39c8.45,0,14.35,5.21,14.35,12.67,0,8.43-9.27,13.65-17.85,13.65-7.7,0-14.98-1.64-22-4.15,8.31-14.6,16.94-22.16,25.51-22.16ZM146.53,107.71c2.56-11.38,11.36-20.63,19.6-20.63,4.23,0,6.92,2.33,7.2,6.23.84,11.87-14.91,19.83-27.41,22.16-.2-2.38,0-5.01.61-7.76Z"/>
  </g>
  <g id="Location">
    <g>
      <path class="st0" d="M822.42,299.57c-9.67,0-17.53,6.84-17.53,15.25v31.03h4.21v-15.78h26.65v15.78h4.21v-31.03c0-8.41-7.87-15.25-17.53-15.25ZM835.75,325.86h-26.65v-11.04c0-6.09,5.97-11.04,13.33-11.04s13.33,4.95,13.33,11.04v11.04Z"/>
      <polygon class="st0" points="593.42 345.85 628.49 345.85 628.49 341.64 597.63 341.64 597.63 330.07 622.33 330.07 622.33 325.86 597.63 325.86 597.63 303.77 628.49 303.77 628.49 299.57 593.42 299.57 593.42 345.85"/>
      <path class="st0" d="M912,330.6c0,6.09-5.99,11.04-13.34,11.04s-13.33-4.95-13.33-11.04v-31.03h-4.21v31.03c0,8.4,7.87,15.25,17.53,15.25s17.55-6.85,17.55-15.25v-31.03h-4.21v31.03Z"/>
      <path class="st0" d="M540.62,329.18c6.77-2.11,11.62-7.75,11.62-14.36,0-8.41-7.86-15.25-17.53-15.25h-20.62v46.28h4.21v-15.78h16.41c.6,0,1.2-.03,1.79-.08,1.16,6.82,7.97,13.62,16.2,15.79l2.03.54,1.07-4.07-2.03-.54c-6.67-1.75-12.37-7.3-13.15-12.53ZM534.71,325.86h-16.41v-22.09h16.41c7.35,0,13.33,4.95,13.33,11.04s-5.97,11.04-13.33,11.04Z"/>
      <path class="st0" d="M983.89,329.19c6.78-2.11,11.64-7.76,11.64-14.37,0-8.41-7.87-15.25-17.53-15.25h-20.63v46.28h4.21v-15.78h16.42c.59,0,1.18-.02,1.76-.08,1.08,6.96,7.59,13.65,15.69,15.79l2.04.54,1.07-4.07-2.04-.54c-6.52-1.71-11.91-7.16-12.63-12.52ZM978,325.86h-16.42v-22.09h16.42c7.34,0,13.33,4.95,13.33,11.04s-5.98,11.04-13.33,11.04Z"/>
      <path class="st0" d="M1053.01,299.57c-9.67,0-17.53,6.84-17.53,15.25v31.03h4.21v-15.78h26.65v15.78h4.21v-31.03c0-8.41-7.87-15.25-17.53-15.25ZM1066.34,325.86h-26.65v-11.04c0-6.09,5.98-11.04,13.33-11.04s13.33,4.95,13.33,11.04v11.04Z"/>
      <polygon class="st0" points="1175.74 299.57 1175.74 303.77 1197.81 303.77 1197.81 345.85 1202.01 345.85 1202.01 303.77 1224.09 303.77 1224.09 299.57 1175.74 299.57"/>
      <polygon class="st0" points="727.54 303.77 749.62 303.77 749.62 345.85 753.83 345.85 753.83 303.77 775.9 303.77 775.9 299.57 727.54 299.57 727.54 303.77"/>
      <polygon class="st0" points="1142.58 330.38 1114.76 299.57 1111.72 299.57 1111.72 345.85 1115.93 345.85 1115.93 307.14 1142.58 336.65 1142.58 345.85 1146.79 345.85 1146.79 299.57 1142.58 299.57 1142.58 330.38"/>
      <path class="st0" d="M682.67,319.59c-9.04-2.15-14.97-3.9-14.97-8.46,0-4,6.1-7.36,13.33-7.36s13.33,3.37,13.33,7.36v2.1h4.21v-2.1c0-6.49-7.7-11.57-17.53-11.57s-17.53,5.08-17.53,11.57c0,8.23,9.26,10.42,18.21,12.55,9.51,2.26,15.75,4.13,15.75,9.28,0,4.7-7.52,8.68-16.42,8.68s-16.41-3.98-16.41-8.68v-2.1h-4.21v2.1c0,7.23,9.06,12.89,20.62,12.89s20.63-5.66,20.63-12.89c0-8.86-10.09-11.25-18.99-13.37Z"/>
    </g>
  </g>
</svg>