<?xml version="1.0" encoding="UTF-8"?>
<svg xmlns="http://www.w3.org/2000/svg" version="1.1" viewBox="0 0 731.53 825.36">
  <!-- Generator: Adobe Illustrator 29.6.0, SVG Export Plug-In . SVG Version: 2.1.1 Build 142)  -->
  <defs>
    <style>
      .st0 {
        fill: #036;
      }
    </style>
  </defs>
  <g id="Logo">
    <g>
      <path class="st0" d="M693.32,485.09c17.94,0,32.48,14.54,32.48,32.48h5.73v-38.21h-114.15v5.73h4.78c3.16,0,5.73,2.57,5.73,5.73v210.87c0,3.17-2.57,5.73-5.73,5.73h-4.78v5.73h114.15v-42.99h-5.73c0,20.58-16.68,37.26-37.26,37.26h-29.13v-74.59h47.76v-7.64h-47.76v-140.1h33.91Z"/>
      <path class="st0" d="M403.1,485.09h4.78c3.16,0,5.73,2.57,5.73,5.73v181.53c-.01,19.38-13.9,35.07-31.05,35.07s-31.04-15.69-31.04-35.07v-174.14c33.8-12.8,50.29-38.7,53.37-51.41l-2.73-1.77s-24.83,30.12-91.58,30.12c-70.27,0-99.93-43.95-160.25-50.71v-216.52c0-3.16,2.56-5.73,5.73-5.73h4.77v-5.73h-52.53v5.73h4.77c3.17,0,5.73,2.57,5.73,5.73v210.87c0,3.17-2.56,5.73-5.73,5.73h-4.77v5.73h26.26c34.43,0,65.97,28.44,101.19,50.4-4.11-.85-8.36-1.3-12.71-1.3-34.55,0-62.57,28.02-62.57,62.57h.01v108.65h-.01c0,34.55,28.01,62.57,62.57,62.57s62.56-28.01,62.57-62.56v-108.66c0-17.73-7.38-33.72-19.23-45.11,13.18,5.43,27.02,8.9,41.82,8.9,4.08,0,8.01-.17,11.81-.5v145.36h-.01c0,34.55,28.01,62.57,62.57,62.57s62.56-28.01,62.57-62.56v-159.77c0-3.16,2.57-5.73,5.73-5.73h4.78v-5.73h-52.54v5.73ZM254.08,672.35c0,19.38-13.89,35.07-31.04,35.07s-31.05-15.69-31.05-35.07v-152.18c0-19.38,13.9-35.08,31.05-35.08s31.04,15.7,31.04,35.08v152.18Z"/>
      <path class="st0" d="M84.06,485.09h4.77c3.17,0,5.73,2.57,5.73,5.73v134.37h-52.53v-134.37c0-3.16,2.56-5.73,5.73-5.73h4.78v-5.73H0v5.73h4.77c3.17,0,5.74,2.57,5.74,5.73v210.87c0,3.17-2.57,5.73-5.74,5.73H0v5.73h52.54v-5.73h-4.78c-3.17,0-5.73-2.56-5.73-5.73v-68.86h52.53v68.86c0,3.17-2.56,5.73-5.73,5.73h-4.77v5.73h52.53v-5.73h-4.77c-3.17,0-5.73-2.56-5.73-5.73v-210.87c0-3.16,2.56-5.73,5.73-5.73h4.77v-5.73h-52.53v5.73Z"/>
      <path class="st0" d="M503.16,525.73c0-20.05,17.08-35.81,38.14-35.81,15.76,0,28.62,7.05,36.59,18.12.29.44.46.97.46,1.54,0,1.48-1.13,2.7-2.58,2.85h0c-8.45.83-15.06,7.96-15.06,16.63,0,9.23,7.48,16.72,16.71,16.72s16.72-7.49,16.72-16.72c0-1.17-.12-2.32-.36-3.42-.04-.18-.15-.69-.17-.76-5.68-25.99-29.89-45.53-58.89-45.53-33.23,0-60.18,25.67-60.18,57.32,0,57.8,96.67,69.45,96.67,122.16,0,23.7-19.21,42.42-42.91,42.42-20.89,0-37.63-11.92-45.45-29.41-.01-.03-.03-.06-.04-.1-.14-.33-.22-.71-.22-1.1,0-1.58,1.28-2.87,2.87-2.87.05,0,.1.01.16.01.37.03.74.04,1.11.04,9.24,0,16.72-7.49,16.72-16.72s-7.48-16.72-16.72-16.72-16.71,7.49-16.71,16.72c0,.12.04,1.13.06,1.4,2.21,33.87,30.38,60.65,64.81,60.65s64.95-29.08,64.95-64.95c0-63.05-96.68-75.49-96.68-122.47Z"/>
      <path class="st0" d="M499.12,202.19h4.77c3.17,0,5.73,2.57,5.73,5.73v210.87c0,3.17-2.56,5.73-5.73,5.73h-4.77v5.73h114.15v-42.99h-5.73c0,20.58-16.68,37.26-37.26,37.26h-29.13v-74.59h47.76v-7.64h-47.76v-140.1h33.91c17.94,0,32.48,14.54,32.48,32.48h5.73v-38.21h-114.15v5.73Z"/>
      <path class="st0" d="M180.95,361.01c11.92-7.32,25.65-11.19,39.72-11.19.99,0,1.98.02,2.96.06,0,0-14.9,70.1-14.9,70.11-.55,2.59-2.85,4.53-5.61,4.53h-7.13v5.73h31.52v-5.73h-8.39c-1.58,0-2.87-1.28-2.87-2.86,0-.16.02-.33.04-.48l15.01-70.61c30.47,4.27,55.21,26.7,62.88,55.98l3.11,14.65c.03.15.04.3.04.46,0,1.58-1.29,2.86-2.87,2.86h-6.85v5.73h52.53v-5.73h-5.17c-2.75,0-5.05-1.94-5.6-4.53,0-.01-.01-.02-.01-.02l-47.51-223.51h-32.22l3.3,15.58-27.71,130.38c-1.51-.09-3.02-.13-4.55-.13-15.42,0-30.48,4.23-43.57,12.24l-1.58.98,3.76,6.53,1.67-1.03ZM256.83,230.43l30.89,145.65c-12.92-17.4-32.45-29.61-54.85-32.9l23.96-112.75Z"/>
      <path class="st0" d="M468.88,205.24c.96-1.81,2.87-3.05,5.06-3.05h7.51v-5.73h-31.53v5.73h7.26c1.58,0,2.86,1.28,2.86,2.87,0,.47-.11.91-.31,1.3l-67.44,132.36v-130.8c0-3.16,2.57-5.73,5.73-5.73h4.78v-5.73h-52.54v5.73h4.78c3.16,0,5.73,2.57,5.73,5.73v210.87c0,3.17-2.57,5.73-5.73,5.73h-4.78v5.73h52.54v-5.73h-4.78c-3.16,0-5.73-2.56-5.73-5.73v-63.24l16.4-32.17s35.42,97.33,35.42,97.34c.11.29.16.61.16.94,0,1.58-1.28,2.86-2.87,2.86h-5.17v5.73h52.54v-5.73h-5.71c-2.45,0-4.54-1.53-5.36-3.69-.02-.03-49.45-135.86-49.45-135.86l40.58-79.64s.03-.06.05-.09Z"/>
      <path class="st0" d="M287.83,96.28c1.02.42,2.19-.07,2.61-1.09.42-1.02-.06-2.19-1.09-2.61-14.57-6.01-23.98-20.07-23.98-35.83,0-21.36,17.38-38.74,38.74-38.74,13.76,0,26.19,5.97,39.09,12.84-6.33,13.22-11.4,28.95-16.18,43.78-6.39,19.85-12.43,38.59-19.96,46.12-4.02,4.02-9.36,6.23-15.05,6.23s-11.03-2.21-15.05-6.23c-.78-.78-2.05-.78-2.83,0-.78.78-.78,2.05,0,2.83,4.77,4.77,11.12,7.4,17.88,7.4s13.1-2.63,17.88-7.4c8.22-8.22,14.11-26.53,20.94-47.73,4.72-14.65,9.73-30.21,15.88-43.13.22.12.44.24.67.36,6.87,3.69,13.84,7.45,21.12,10.43-15.2,28.94-24.36,71.25-26.61,82.45-.24.95-.41,1.84-.52,2.65,0,0,0,0,0,0,0,0,0,0,0,0,0,.04-.01.08-.02.12,0,.05,0,.09,0,.14,0,.07,0,.13,0,.2,0,.07.01.13.02.2,0,.06.02.13.03.19.02.07.04.13.06.19.02.06.04.12.07.17.03.06.06.12.1.17.03.05.06.11.1.16.04.05.08.1.12.15.04.05.08.1.13.14.05.04.1.08.15.12.05.04.1.08.16.11.06.03.11.06.17.09.06.03.12.06.18.08.06.02.13.04.2.06.05.01.09.03.13.04.02,0,.05,0,.07,0,.02,0,.04.01.06.01.08,0,.15.01.23.01,0,0,.01,0,.02,0,.12,0,.24-.01.36-.03.03,0,.07-.02.1-.03.08-.02.16-.04.24-.07.04-.02.08-.04.12-.05.07-.03.13-.06.2-.1.04-.02.07-.05.11-.08.06-.04.12-.08.17-.13.04-.03.07-.06.1-.1.05-.05.1-.1.14-.15.03-.04.06-.08.09-.12.04-.05.08-.11.11-.17.03-.05.05-.1.07-.14.03-.06.05-.12.08-.18.02-.05.03-.11.05-.17.01-.04.03-.08.04-.12,0-.05.2-1.05.56-2.81,3.46-13.25,20.67-39.8,35.97-39.8,2.74,0,3.54,1.07,3.81,1.42,2.54,3.37-.21,12.92-2.41,20.59-2.51,8.75-4.68,16.31-1.85,20.07.74.98,2.16,2.14,4.77,2.14,6.96,0,13.31-4.77,17.99-9.65.6,1.46,1.37,2.8,2.32,4,2.96,3.7,7.39,5.65,12.81,5.65,10.86,0,21.43-4.75,30.56-13.75,6.82-6.72,10.43-13.37,10.58-13.65.52-.97.16-2.18-.82-2.71-.97-.52-2.19-.16-2.71.82-.14.25-13.88,25.29-37.61,25.29-4.17,0-7.52-1.44-9.69-4.15-.88-1.1-1.56-2.4-2.04-3.86,20.79-3.67,31.24-16.09,30.52-26.3-.43-6.03-4.81-9.92-11.16-9.92-10.15,0-20.45,10.4-23.44,23.68-.83,3.71-1.01,7.19-.55,10.33-3.61,4.12-10.09,10.23-16.77,10.23-1.16,0-1.46-.4-1.58-.55-1.63-2.17.66-10.15,2.5-16.56,2.7-9.41,5.5-19.14,1.76-24.1-1.51-2-3.86-3.02-7-3.02-11.93,0-23.91,12.52-31.72,25.17,2.45-9.85,5.81-22.02,9.99-34.12,3.92-11.34,7.97-20.98,12.11-28.85,7.54,2.76,15.42,4.57,23.87,4.57,10.48,0,21.79-6.73,21.79-17.6,0-9.63-7.69-16.62-18.29-16.62-11.24,0-21,10.29-29.13,24.66-7.27-2.94-14.27-6.71-21.16-10.41-.26-.14-.52-.28-.78-.42,6.74-13.11,14.84-22.91,25.32-25.19,1.08-.23,1.76-1.3,1.53-2.38-.24-1.08-1.3-1.76-2.38-1.53-11.84,2.58-20.73,13.18-27.97,27.22-12.89-6.85-26.25-13.26-40.87-13.26-23.57,0-42.74,19.17-42.74,42.74,0,17.38,10.38,32.9,26.45,39.53ZM407.37,107.32c2.55-11.33,11.32-20.55,19.53-20.55,4.22,0,6.9,2.32,7.17,6.2.83,11.82-14.86,19.76-27.31,22.08-.2-2.37,0-4.99.61-7.73ZM399.57,19.32c8.42,0,14.29,5.19,14.29,12.62,0,8.4-9.23,13.6-17.79,13.6-7.67,0-14.93-1.63-21.92-4.13,8.28-14.55,16.87-22.08,25.41-22.08Z"/>
    </g>
  </g>
  <g id="Location">
    <g>
      <path class="st0" d="M325.55,778.61c-9.67,0-17.53,6.84-17.53,15.25v31.03h4.21v-15.78h26.65v15.78h4.21v-31.03c0-8.41-7.87-15.25-17.53-15.25ZM338.87,804.91h-26.65v-11.04c0-6.09,5.97-11.04,13.33-11.04s13.33,4.95,13.33,11.04v11.04Z"/>
      <polygon class="st0" points="96.55 824.9 131.62 824.9 131.62 820.69 100.76 820.69 100.76 809.12 125.45 809.12 125.45 804.91 100.76 804.91 100.76 782.82 131.62 782.82 131.62 778.61 96.55 778.61 96.55 824.9"/>
      <path class="st0" d="M415.12,809.64c0,6.09-5.99,11.04-13.34,11.04s-13.33-4.95-13.33-11.04v-31.03h-4.21v31.03c0,8.4,7.87,15.25,17.53,15.25s17.55-6.85,17.55-15.25v-31.03h-4.21v31.03Z"/>
      <path class="st0" d="M43.75,808.22c6.77-2.11,11.62-7.75,11.62-14.36,0-8.41-7.86-15.25-17.53-15.25h-20.62v46.28h4.21v-15.78h16.41c.6,0,1.2-.03,1.79-.08,1.16,6.82,7.97,13.62,16.2,15.79l2.03.54,1.07-4.07-2.03-.54c-6.67-1.75-12.37-7.3-13.15-12.53ZM37.83,804.91h-16.41v-22.09h16.41c7.35,0,13.33,4.95,13.33,11.04s-5.97,11.04-13.33,11.04Z"/>
      <path class="st0" d="M487.02,808.23c6.78-2.11,11.64-7.76,11.64-14.37,0-8.41-7.87-15.25-17.53-15.25h-20.63v46.28h4.21v-15.78h16.42c.59,0,1.18-.02,1.76-.08,1.08,6.96,7.59,13.65,15.69,15.79l2.04.54,1.07-4.07-2.04-.54c-6.52-1.71-11.91-7.16-12.63-12.52ZM481.13,804.91h-16.42v-22.09h16.42c7.34,0,13.33,4.95,13.33,11.04s-5.98,11.04-13.33,11.04Z"/>
      <path class="st0" d="M556.13,778.61c-9.67,0-17.53,6.84-17.53,15.25v31.03h4.21v-15.78h26.65v15.78h4.21v-31.03c0-8.41-7.87-15.25-17.53-15.25ZM569.46,804.91h-26.65v-11.04c0-6.09,5.98-11.04,13.33-11.04s13.33,4.95,13.33,11.04v11.04Z"/>
      <polygon class="st0" points="678.86 778.61 678.86 782.82 700.93 782.82 700.93 824.9 705.14 824.9 705.14 782.82 727.22 782.82 727.22 778.61 678.86 778.61"/>
      <polygon class="st0" points="230.67 782.82 252.75 782.82 252.75 824.9 256.96 824.9 256.96 782.82 279.02 782.82 279.02 778.61 230.67 778.61 230.67 782.82"/>
      <polygon class="st0" points="645.71 809.43 617.89 778.61 614.85 778.61 614.85 824.9 619.06 824.9 619.06 786.19 645.71 815.7 645.71 824.9 649.92 824.9 649.92 778.61 645.71 778.61 645.71 809.43"/>
      <path class="st0" d="M185.8,798.64c-9.04-2.15-14.97-3.9-14.97-8.46,0-4,6.1-7.36,13.33-7.36s13.33,3.37,13.33,7.36v2.1h4.21v-2.1c0-6.49-7.7-11.57-17.53-11.57s-17.53,5.08-17.53,11.57c0,8.23,9.26,10.42,18.21,12.55,9.51,2.26,15.75,4.13,15.75,9.28,0,4.7-7.52,8.68-16.42,8.68s-16.41-3.98-16.41-8.68v-2.1h-4.21v2.1c0,7.23,9.06,12.89,20.62,12.89s20.63-5.66,20.63-12.89c0-8.86-10.09-11.25-18.99-13.37Z"/>
    </g>
  </g>
</svg>