<?xml version="1.0" encoding="UTF-8"?>
<svg id="Layer_1" xmlns="http://www.w3.org/2000/svg" xmlns:xlink="http://www.w3.org/1999/xlink" version="1.1" viewBox="0 0 2000 2000">
  <!-- Generator: Adobe Illustrator 29.6.0, SVG Export Plug-In . SVG Version: 2.1.1 Build 142)  -->
  <defs>
    <style>
      .st0, .st1, .st2 {
        fill: none;
      }

      .st3 {
        fill: url(#Charcoal_Waves);
      }

      .st1 {
        stroke-width: .25px;
      }

      .st1, .st2 {
        stroke: #333;
        stroke-miterlimit: 10;
      }

      .st2 {
        stroke-width: .5px;
      }
    </style>
    <pattern id="Charcoal_Waves" data-name="Charcoal Waves" x="0" y="0" width="213" height="160.5" patternUnits="userSpaceOnUse" viewBox="0 0 213 160.5">
      <g>
        <rect class="st0" y="0" width="213" height="160.5"/>
        <g>
          <path class="st1" d="M57.3,159.67c-1.95,7.82-9.03,13.63-17.47,13.63s-15.51-5.81-17.46-13.64"/>
          <path class="st1" d="M110.63,159.66c-1.95,7.83-9.03,13.64-17.47,13.64s-15.51-5.8-17.46-13.63"/>
          <path class="st1" d="M163.97,159.67c-1.96,7.82-9.04,13.63-17.47,13.63s-15.52-5.8-17.47-13.63"/>
          <path class="st1" d="M217.29,159.66c-1.94,7.83-9.02,13.64-17.46,13.64s-15.52-5.8-17.47-13.63"/>
        </g>
        <path class="st1" d="M4.29,159.66c-1.94,7.83-9.02,13.64-17.46,13.64s-15.52-5.8-17.47-13.63"/>
        <g>
          <path class="st1" d="M243.63,132.83c-1.95,7.83-9.03,13.64-17.47,13.64s-15.51-5.8-17.46-13.63"/>
          <g>
            <path class="st2" d="M252.83,134.47c0,14.72-11.94,26.66-26.66,26.66s-26.67-11.94-26.67-26.66"/>
            <path class="st2" d="M252.58,134.46c-1.75,13.03-12.91,23.07-26.41,23.07s-24.67-10.04-26.42-23.07"/>
          </g>
        </g>
        <g>
          <g>
            <path class="st1" d="M83.97,132.83c-1.95,7.83-9.03,13.64-17.48,13.64s-15.51-5.81-17.45-13.63"/>
            <path class="st1" d="M137.29,132.83c-1.95,7.84-9.03,13.64-17.46,13.64s-15.51-5.8-17.47-13.62"/>
            <path class="st1" d="M30.63,132.83c-1.95,7.83-9.03,13.64-17.47,13.64s-15.51-5.8-17.46-13.63"/>
            <path class="st1" d="M190.63,132.84c-1.96,7.83-9.03,13.63-17.47,13.63s-15.5-5.8-17.46-13.63"/>
            <path class="st1" d="M57.3,106.17c-1.95,7.82-9.03,13.63-17.47,13.63s-15.51-5.81-17.46-13.64"/>
            <path class="st1" d="M110.63,106.16c-1.95,7.83-9.03,13.64-17.47,13.64s-15.51-5.8-17.46-13.63"/>
            <path class="st1" d="M163.97,106.17c-1.96,7.82-9.04,13.63-17.47,13.63s-15.52-5.8-17.47-13.63"/>
            <path class="st1" d="M217.29,106.16c-1.94,7.83-9.02,13.64-17.46,13.64s-15.52-5.8-17.47-13.63"/>
          </g>
          <g>
            <path class="st2" d="M93.17,134.47c0,14.72-11.94,26.66-26.68,26.66s-26.66-11.94-26.66-26.66"/>
            <path class="st2" d="M92.92,134.46c-1.75,13.03-12.91,23.07-26.43,23.07s-24.66-10.04-26.41-23.07"/>
            <path class="st2" d="M146.5,134.47c0,14.72-11.94,26.66-26.67,26.66s-26.66-11.94-26.66-26.66"/>
            <path class="st2" d="M146.25,134.46c-1.75,13.03-12.91,23.07-26.42,23.07s-24.66-10.04-26.41-23.07"/>
            <path class="st2" d="M199.83,134.47c0,14.72-11.94,26.66-26.66,26.66s-26.67-11.94-26.67-26.66"/>
            <path class="st2" d="M199.58,134.46c-1.75,13.03-12.91,23.07-26.41,23.07s-24.67-10.04-26.42-23.07"/>
            <path class="st2" d="M66.5,107.8c0,14.74-11.93,26.67-26.66,26.67s-26.66-11.93-26.67-26.67"/>
            <path class="st2" d="M66.25,107.79c-1.75,13.04-12.9,23.08-26.41,23.08s-24.67-10.04-26.42-23.08"/>
            <path class="st2" d="M119.84,107.8c-.01,14.74-11.94,26.67-26.66,26.67s-26.67-11.93-26.68-26.67"/>
            <path class="st2" d="M119.59,107.79c-1.75,13.04-12.91,23.08-26.41,23.08s-24.68-10.04-26.43-23.08"/>
            <path class="st2" d="M39.83,134.47c0,14.72-11.94,26.66-26.66,26.66s-26.67-11.94-26.67-26.66"/>
            <path class="st2" d="M39.58,134.46c-1.75,13.03-12.91,23.07-26.41,23.07s-24.67-10.04-26.42-23.07"/>
            <path class="st2" d="M172.92,107.79c-1.75,13.04-12.9,23.08-26.42,23.08s-24.66-10.04-26.41-23.08"/>
            <path class="st2" d="M119.84,107.8c0,14.74,11.94,26.67,26.66,26.67s26.54-11.82,26.67-26.45c0-.02,0-.05,0-.07v-.15"/>
            <path class="st2" d="M226.5,107.8c0,14.74-11.94,26.67-26.66,26.67s-26.55-11.82-26.67-26.45c0-.02,0-.05,0-.07,0-.05,0-.1,0-.15"/>
            <path class="st2" d="M226.25,107.79c-1.75,13.04-12.91,23.08-26.41,23.08s-24.68-10.04-26.43-23.08"/>
          </g>
        </g>
        <g>
          <path class="st1" d="M4.29,106.16c-1.94,7.83-9.02,13.64-17.46,13.64s-15.52-5.8-17.47-13.63"/>
          <g>
            <path class="st2" d="M13.5,107.8c0,14.74-11.94,26.67-26.66,26.67s-26.55-11.82-26.67-26.45c0-.02,0-.05,0-.07,0-.05,0-.1,0-.15"/>
            <path class="st2" d="M13.25,107.79c-1.75,13.04-12.91,23.08-26.41,23.08s-24.68-10.04-26.43-23.08"/>
          </g>
        </g>
        <g>
          <path class="st1" d="M243.63,79.33c-1.95,7.83-9.03,13.64-17.47,13.64s-15.51-5.8-17.46-13.63"/>
          <g>
            <path class="st2" d="M252.83,80.97c0,14.72-11.94,26.66-26.66,26.66s-26.67-11.94-26.67-26.66"/>
            <path class="st2" d="M252.58,80.96c-1.75,13.03-12.91,23.07-26.41,23.07s-24.67-10.04-26.42-23.07"/>
          </g>
        </g>
        <g>
          <g>
            <path class="st1" d="M83.97,79.33c-1.95,7.83-9.03,13.64-17.48,13.64s-15.51-5.81-17.45-13.63"/>
            <path class="st1" d="M137.29,79.33c-1.95,7.84-9.03,13.64-17.46,13.64s-15.51-5.8-17.47-13.62"/>
            <path class="st1" d="M30.63,79.33c-1.95,7.83-9.03,13.64-17.47,13.64s-15.51-5.8-17.46-13.63"/>
            <path class="st1" d="M190.63,79.34c-1.96,7.83-9.03,13.63-17.47,13.63s-15.5-5.8-17.46-13.63"/>
            <path class="st1" d="M57.3,52.67c-1.95,7.82-9.03,13.63-17.47,13.63s-15.51-5.81-17.46-13.64"/>
            <path class="st1" d="M110.63,52.66c-1.95,7.83-9.03,13.64-17.47,13.64s-15.51-5.8-17.46-13.63"/>
            <path class="st1" d="M163.97,52.67c-1.96,7.82-9.04,13.63-17.47,13.63s-15.52-5.8-17.47-13.63"/>
            <path class="st1" d="M217.29,52.66c-1.94,7.83-9.02,13.64-17.46,13.64s-15.52-5.8-17.47-13.63"/>
          </g>
          <g>
            <path class="st2" d="M93.17,80.97c0,14.72-11.94,26.66-26.68,26.66s-26.66-11.94-26.66-26.66"/>
            <path class="st2" d="M92.92,80.96c-1.75,13.03-12.91,23.07-26.43,23.07s-24.66-10.04-26.41-23.07"/>
            <path class="st2" d="M146.5,80.97c0,14.72-11.94,26.66-26.67,26.66s-26.66-11.94-26.66-26.66"/>
            <path class="st2" d="M146.25,80.96c-1.75,13.03-12.91,23.07-26.42,23.07s-24.66-10.04-26.41-23.07"/>
            <path class="st2" d="M199.83,80.97c0,14.72-11.94,26.66-26.66,26.66s-26.67-11.94-26.67-26.66"/>
            <path class="st2" d="M199.58,80.96c-1.75,13.03-12.91,23.07-26.41,23.07s-24.67-10.04-26.42-23.07"/>
            <path class="st2" d="M66.5,54.3c0,14.74-11.93,26.67-26.66,26.67s-26.66-11.93-26.67-26.67"/>
            <path class="st2" d="M66.25,54.29c-1.75,13.04-12.9,23.08-26.41,23.08s-24.67-10.04-26.42-23.08"/>
            <path class="st2" d="M119.84,54.3c-.01,14.74-11.94,26.67-26.66,26.67s-26.67-11.93-26.68-26.67"/>
            <path class="st2" d="M119.59,54.29c-1.75,13.04-12.91,23.08-26.41,23.08s-24.68-10.04-26.43-23.08"/>
            <path class="st2" d="M39.83,80.97c0,14.72-11.94,26.66-26.66,26.66s-26.67-11.94-26.67-26.66"/>
            <path class="st2" d="M39.58,80.96c-1.75,13.03-12.91,23.07-26.41,23.07s-24.67-10.04-26.42-23.07"/>
            <path class="st2" d="M172.92,54.29c-1.75,13.04-12.9,23.08-26.42,23.08s-24.66-10.04-26.41-23.08"/>
            <path class="st2" d="M119.84,54.3c0,14.74,11.94,26.67,26.66,26.67s26.54-11.82,26.67-26.45c0-.02,0-.05,0-.07v-.15"/>
            <path class="st2" d="M226.5,54.3c0,14.74-11.94,26.67-26.66,26.67s-26.55-11.82-26.67-26.45c0-.02,0-.05,0-.07,0-.05,0-.1,0-.15"/>
            <path class="st2" d="M226.25,54.29c-1.75,13.04-12.91,23.08-26.41,23.08s-24.68-10.04-26.43-23.08"/>
          </g>
        </g>
        <g>
          <path class="st1" d="M4.29,52.66c-1.94,7.83-9.02,13.64-17.46,13.64s-15.52-5.8-17.47-13.63"/>
          <g>
            <path class="st2" d="M13.5,54.3c0,14.74-11.94,26.67-26.66,26.67s-26.55-11.82-26.67-26.45c0-.02,0-.05,0-.07,0-.05,0-.1,0-.15"/>
            <path class="st2" d="M13.25,54.29c-1.75,13.04-12.91,23.08-26.41,23.08s-24.68-10.04-26.43-23.08"/>
          </g>
        </g>
        <g>
          <path class="st1" d="M243.63,25.83c-1.95,7.83-9.03,13.64-17.47,13.64s-15.51-5.8-17.46-13.63"/>
          <g>
            <path class="st2" d="M252.83,27.47c0,14.72-11.94,26.66-26.66,26.66s-26.67-11.94-26.67-26.66"/>
            <path class="st2" d="M252.58,27.46c-1.75,13.03-12.91,23.07-26.41,23.07s-24.67-10.04-26.42-23.07"/>
          </g>
        </g>
        <g>
          <g>
            <path class="st1" d="M83.97,25.83c-1.95,7.83-9.03,13.64-17.48,13.64s-15.51-5.81-17.45-13.63"/>
            <path class="st1" d="M137.29,25.83c-1.95,7.84-9.03,13.64-17.46,13.64s-15.51-5.8-17.47-13.62"/>
            <path class="st1" d="M30.63,25.83c-1.95,7.83-9.03,13.64-17.47,13.64s-15.51-5.8-17.46-13.63"/>
            <path class="st1" d="M190.63,25.84c-1.96,7.83-9.03,13.63-17.47,13.63s-15.5-5.8-17.46-13.63"/>
            <path class="st1" d="M57.3-.83c-1.95,7.82-9.03,13.63-17.47,13.63S24.32,6.99,22.37-.84"/>
            <path class="st1" d="M110.63-.84c-1.95,7.83-9.03,13.64-17.47,13.64s-15.51-5.8-17.46-13.63"/>
            <path class="st1" d="M163.97-.83c-1.96,7.82-9.04,13.63-17.47,13.63s-15.52-5.8-17.47-13.63"/>
            <path class="st1" d="M217.29-.84c-1.94,7.83-9.02,13.64-17.46,13.64s-15.52-5.8-17.47-13.63"/>
          </g>
          <g>
            <path class="st2" d="M93.17,27.47c0,14.72-11.94,26.66-26.68,26.66s-26.66-11.94-26.66-26.66"/>
            <path class="st2" d="M92.92,27.46c-1.75,13.03-12.91,23.07-26.43,23.07s-24.66-10.04-26.41-23.07"/>
            <path class="st2" d="M146.5,27.47c0,14.72-11.94,26.66-26.67,26.66s-26.66-11.94-26.66-26.66"/>
            <path class="st2" d="M146.25,27.46c-1.75,13.03-12.91,23.07-26.42,23.07s-24.66-10.04-26.41-23.07"/>
            <path class="st2" d="M199.83,27.47c0,14.72-11.94,26.66-26.66,26.66s-26.67-11.94-26.67-26.66"/>
            <path class="st2" d="M199.58,27.46c-1.75,13.03-12.91,23.07-26.41,23.07s-24.67-10.04-26.42-23.07"/>
            <path class="st2" d="M66.5.8c0,14.74-11.93,26.67-26.66,26.67S13.18,15.54,13.17.8"/>
            <path class="st2" d="M66.25.79c-1.75,13.04-12.9,23.08-26.41,23.08S15.17,13.83,13.42.79"/>
            <path class="st2" d="M119.84.8c-.01,14.74-11.94,26.67-26.66,26.67S66.51,15.54,66.5.8"/>
            <path class="st2" d="M119.59.79c-1.75,13.04-12.91,23.08-26.41,23.08S68.5,13.83,66.75.79"/>
            <path class="st2" d="M39.83,27.47c0,14.72-11.94,26.66-26.66,26.66s-26.67-11.94-26.67-26.66"/>
            <path class="st2" d="M39.58,27.46c-1.75,13.03-12.91,23.07-26.41,23.07s-24.67-10.04-26.42-23.07"/>
            <path class="st2" d="M172.92.79c-1.75,13.04-12.9,23.08-26.42,23.08S121.84,13.83,120.09.79"/>
            <path class="st2" d="M119.84.8c0,14.74,11.94,26.67,26.66,26.67s26.54-11.82,26.67-26.45c0-.02,0-.05,0-.07v-.15"/>
            <path class="st2" d="M226.5.8c0,14.74-11.94,26.67-26.66,26.67s-26.55-11.82-26.67-26.45c0-.02,0-.05,0-.07,0-.05,0-.1,0-.15"/>
            <path class="st2" d="M226.25.79c-1.75,13.04-12.91,23.08-26.41,23.08s-24.68-10.04-26.43-23.08"/>
          </g>
        </g>
        <g>
          <path class="st1" d="M4.29-.84C2.35,6.99-4.73,12.8-13.17,12.8S-28.69,7-30.64-.83"/>
          <g>
            <path class="st2" d="M13.5.8c0,14.74-11.94,26.67-26.66,26.67S-39.71,15.65-39.83,1.02c0-.02,0-.05,0-.07,0-.05,0-.1,0-.15"/>
            <path class="st2" d="M13.25.79C11.5,13.83.34,23.87-13.16,23.87S-37.84,13.83-39.59.79"/>
          </g>
        </g>
        <path class="st2" d="M252.83-26.03c0,14.72-11.94,26.66-26.66,26.66s-26.67-11.94-26.67-26.66"/>
        <g>
          <path class="st2" d="M93.17-26.03c0,14.72-11.94,26.66-26.68,26.66s-26.66-11.94-26.66-26.66"/>
          <path class="st2" d="M146.5-26.03c0,14.72-11.94,26.66-26.67,26.66s-26.66-11.94-26.66-26.66"/>
          <path class="st2" d="M199.83-26.03c0,14.72-11.94,26.66-26.66,26.66s-26.67-11.94-26.67-26.66"/>
          <path class="st2" d="M39.83-26.03C39.83-11.31,27.89.63,13.17.63S-13.5-11.31-13.5-26.03"/>
        </g>
      </g>
    </pattern>
  </defs>
  <rect class="st3" y="-.07" width="2000.07" height="2000.07"/>
</svg>