<?xml version="1.0" encoding="UTF-8"?>
<svg id="Layer_1" xmlns="http://www.w3.org/2000/svg" xmlns:xlink="http://www.w3.org/1999/xlink" version="1.1" viewBox="0 0 2000 2000">
  <!-- Generator: Adobe Illustrator 29.6.0, SVG Export Plug-In . SVG Version: 2.1.1 Build 142)  -->
  <defs>
    <style>
      .st0 {
        fill: none;
      }

      .st1 {
        fill: url(#Charcoal_Utensils);
      }

      .st2 {
        fill: #333;
      }
    </style>
    <pattern id="Charcoal_Utensils" data-name="Charcoal Utensils" x="0" y="0" width="200" height="200" patternUnits="userSpaceOnUse" viewBox="0 0 200 200">
      <g>
        <rect class="st0" width="200" height="200"/>
        <g>
          <g>
            <path class="st2" d="M159.96,185.19c4.1,4.1,8.52,9.76,10.65,11.89.81.81,1.62,1.21,2.25.58s.23-1.44-.58-2.25c-2.13-2.13-7.8-6.55-11.89-10.65-1.87-1.87-2.39-4.29-3.96-5.86l-4.65-4.34-.2.2s4.25,4.38,4.43,4.56c.09.09.09.23,0,.31s-.23.08-.31,0c-.25-.25-4.52-4.47-4.52-4.47l-.2.2s4.24,4.33,4.45,4.54c.09.09.09.23,0,.31s-.23.08-.31,0c-.19-.19-4.54-4.45-4.54-4.45l-.2.2s4.26,4.31,4.47,4.52c.09.09.09.23,0,.31s-.23.08-.31,0c-.25-.25-4.56-4.43-4.56-4.43l-.2.2,4.34,4.65c1.57,1.57,4,2.1,5.86,3.96Z"/>
            <path class="st2" d="M164.87,185.54c-3.71,3.71-8.6,7.36-11.12,9.87-.81.81-1.21,1.62-.58,2.25s1.44.23,2.25-.58c2.52-2.52,6.16-7.41,9.87-11.12,2.48-2.48,5.4-1.49,7.72-3.81,1.8-1.8,2.28-4.23,1.09-5.43s-3.63-.71-5.43,1.09c-2.32,2.32-1.33,5.24-3.81,7.72Z"/>
          </g>
          <g>
            <path class="st2" d="M59.9,185.12c4.1,4.1,8.52,9.76,10.65,11.89.81.81,1.62,1.21,2.25.58s.23-1.44-.58-2.25c-2.13-2.13-7.8-6.55-11.89-10.65-1.87-1.87-2.39-4.29-3.96-5.86l-4.65-4.34-.2.2s4.25,4.38,4.43,4.56c.09.09.09.23,0,.31s-.23.08-.31,0c-.25-.25-4.52-4.47-4.52-4.47l-.2.2s4.24,4.33,4.45,4.54c.09.09.09.23,0,.31s-.23.08-.31,0c-.19-.19-4.54-4.45-4.54-4.45l-.2.2s4.26,4.31,4.47,4.52c.09.09.09.23,0,.31s-.23.08-.31,0c-.25-.25-4.56-4.43-4.56-4.43l-.2.2,4.34,4.65c1.57,1.57,4,2.1,5.86,3.96Z"/>
            <path class="st2" d="M64.81,185.47c-3.71,3.71-8.6,7.36-11.12,9.87-.81.81-1.21,1.62-.58,2.25s1.44.23,2.25-.58c2.52-2.52,6.16-7.41,9.87-11.12,2.48-2.48,5.4-1.49,7.72-3.81,1.8-1.8,2.28-4.23,1.09-5.43s-3.63-.71-5.43,1.09c-2.32,2.32-1.33,5.24-3.81,7.72Z"/>
          </g>
          <path class="st2" d="M47.19,172.42c-1.9-1.44-3.68-2.98-5.43-4.57-.88-.78-1.73-1.6-2.59-2.41l-2.53-2.47-2.47-2.53c-.8-.86-1.63-1.71-2.41-2.59-1.59-1.75-3.13-3.53-4.57-5.43l.35-.35c1.9,1.44,3.68,2.98,5.43,4.57.88.78,1.73,1.61,2.59,2.41l2.53,2.47,2.47,2.53c.8.86,1.63,1.71,2.41,2.59,1.59,1.75,3.13,3.53,4.57,5.43l-.35.35Z"/>
          <path class="st2" d="M78.4,172.07c1.44-1.9,2.98-3.68,4.57-5.43.78-.88,1.6-1.73,2.41-2.59l2.47-2.53,2.53-2.47c.86-.8,1.71-1.63,2.59-2.41,1.75-1.59,3.53-3.13,5.43-4.57l.35.35c-1.44,1.9-2.98,3.68-4.57,5.43-.78.88-1.61,1.73-2.41,2.59l-2.47,2.53-2.53,2.47c-.86.8-1.71,1.63-2.59,2.41-1.75,1.59-3.53,3.13-5.43,4.57l-.35-.35Z"/>
          <path class="st2" d="M147.19,172.42c-1.9-1.44-3.68-2.98-5.43-4.57-.88-.78-1.73-1.6-2.59-2.41l-2.53-2.47-2.47-2.53c-.8-.86-1.63-1.71-2.41-2.59-1.59-1.75-3.13-3.53-4.57-5.43l.35-.35c1.9,1.44,3.68,2.98,5.43,4.57.88.78,1.73,1.61,2.59,2.41l2.53,2.47,2.47,2.53c.8.86,1.63,1.71,2.41,2.59,1.59,1.75,3.13,3.53,4.57,5.43l-.35.35Z"/>
          <path class="st2" d="M178.4,172.07c1.44-1.9,2.98-3.68,4.57-5.43.78-.88,1.6-1.73,2.41-2.59l2.47-2.53,2.53-2.47c.86-.8,1.71-1.63,2.59-2.41,1.75-1.59,3.53-3.13,5.43-4.57l.35.35c-1.44,1.9-2.98,3.68-4.57,5.43-.78.88-1.61,1.73-2.41,2.59l-2.47,2.53-2.53,2.47c-.86.8-1.71,1.63-2.59,2.41-1.75,1.59-3.53,3.13-5.43,4.57l-.35-.35Z"/>
        </g>
        <g>
          <g>
            <path class="st2" d="M115.99,135.11c-4.1,4.1-8.52,9.76-10.65,11.89-.81.81-1.62,1.21-2.25.58s-.23-1.44.58-2.25c2.13-2.13,7.8-6.55,11.89-10.65,1.87-1.87,2.39-4.29,3.96-5.86l4.65-4.34.2.2s-4.25,4.38-4.43,4.56c-.09.09-.09.23,0,.31s.23.08.31,0c.25-.25,4.52-4.47,4.52-4.47l.2.2s-4.24,4.33-4.45,4.54c-.09.09-.09.23,0,.31s.23.08.31,0c.19-.19,4.54-4.45,4.54-4.45l.2.2s-4.26,4.31-4.47,4.52c-.09.09-.09.23,0,.31s.23.08.31,0c.25-.25,4.56-4.43,4.56-4.43l.2.2-4.34,4.65c-1.57,1.57-4,2.1-5.86,3.96Z"/>
            <path class="st2" d="M111.08,135.46c3.71,3.71,8.6,7.36,11.12,9.87.81.81,1.21,1.62.58,2.25s-1.44.23-2.25-.58c-2.52-2.52-6.16-7.41-9.87-11.12-2.48-2.48-5.4-1.49-7.72-3.81-1.8-1.8-2.28-4.23-1.09-5.43s3.63-.71,5.43,1.09c2.32,2.32,1.33,5.24,3.81,7.72Z"/>
          </g>
          <g>
            <path class="st2" d="M115.99,135.11c-4.1,4.1-8.52,9.76-10.65,11.89-.81.81-1.62,1.21-2.25.58s-.23-1.44.58-2.25c2.13-2.13,7.8-6.55,11.89-10.65,1.87-1.87,2.39-4.29,3.96-5.86l4.65-4.34.2.2s-4.25,4.38-4.43,4.56c-.09.09-.09.23,0,.31s.23.08.31,0c.25-.25,4.52-4.47,4.52-4.47l.2.2s-4.24,4.33-4.45,4.54c-.09.09-.09.23,0,.31s.23.08.31,0c.19-.19,4.54-4.45,4.54-4.45l.2.2s-4.26,4.31-4.47,4.52c-.09.09-.09.23,0,.31s.23.08.31,0c.25-.25,4.56-4.43,4.56-4.43l.2.2-4.34,4.65c-1.57,1.57-4,2.1-5.86,3.96Z"/>
            <path class="st2" d="M111.08,135.46c3.71,3.71,8.6,7.36,11.12,9.87.81.81,1.21,1.62.58,2.25s-1.44.23-2.25-.58c-2.52-2.52-6.16-7.41-9.87-11.12-2.48-2.48-5.4-1.49-7.72-3.81-1.8-1.8-2.28-4.23-1.09-5.43s3.63-.71,5.43,1.09c2.32,2.32,1.33,5.24,3.81,7.72Z"/>
          </g>
          <g>
            <path class="st2" d="M16.05,135.15c-4.1,4.1-8.52,9.76-10.65,11.89-.81.81-1.62,1.21-2.25.58s-.23-1.44.58-2.25c2.13-2.13,7.8-6.55,11.89-10.65,1.87-1.87,2.39-4.29,3.96-5.86l4.65-4.34.2.2s-4.25,4.38-4.43,4.56c-.09.09-.09.23,0,.31s.23.08.31,0c.25-.25,4.52-4.47,4.52-4.47l.2.2s-4.24,4.33-4.45,4.54c-.09.09-.09.23,0,.31s.23.08.31,0c.19-.19,4.54-4.45,4.54-4.45l.2.2s-4.26,4.31-4.47,4.52c-.09.09-.09.23,0,.31s.23.08.31,0c.25-.25,4.56-4.43,4.56-4.43l.2.2-4.34,4.65c-1.57,1.57-4,2.1-5.86,3.96Z"/>
            <path class="st2" d="M11.14,135.5c3.71,3.71,8.6,7.36,11.12,9.87.81.81,1.21,1.62.58,2.25s-1.44.23-2.25-.58c-2.52-2.52-6.16-7.41-9.87-11.12-2.48-2.48-5.4-1.49-7.72-3.81-1.8-1.8-2.28-4.23-1.09-5.43s3.63-.71,5.43,1.09c2.32,2.32,1.33,5.24,3.81,7.72Z"/>
          </g>
          <g>
            <path class="st2" d="M159.96,85.19c4.1,4.1,8.52,9.76,10.65,11.89.81.81,1.62,1.21,2.25.58s.23-1.44-.58-2.25c-2.13-2.13-7.8-6.55-11.89-10.65-1.87-1.87-2.39-4.29-3.96-5.86l-4.65-4.34-.2.2s4.25,4.38,4.43,4.56c.09.09.09.23,0,.31s-.23.08-.31,0c-.25-.25-4.52-4.47-4.52-4.47l-.2.2s4.24,4.33,4.45,4.54c.09.09.09.23,0,.31s-.23.08-.31,0c-.19-.19-4.54-4.45-4.54-4.45l-.2.2s4.26,4.31,4.47,4.52c.09.09.09.23,0,.31s-.23.08-.31,0c-.25-.25-4.56-4.43-4.56-4.43l-.2.2,4.34,4.65c1.57,1.57,4,2.1,5.86,3.96Z"/>
            <path class="st2" d="M164.87,85.54c-3.71,3.71-8.6,7.36-11.12,9.87-.81.81-1.21,1.62-.58,2.25s1.44.23,2.25-.58c2.52-2.52,6.16-7.41,9.87-11.12,2.48-2.48,5.4-1.49,7.72-3.81,1.8-1.8,2.28-4.23,1.09-5.43s-3.63-.71-5.43,1.09c-2.32,2.32-1.33,5.24-3.81,7.72Z"/>
          </g>
          <g>
            <path class="st2" d="M59.9,85.12c4.1,4.1,8.52,9.76,10.65,11.89.81.81,1.62,1.21,2.25.58s.23-1.44-.58-2.25c-2.13-2.13-7.8-6.55-11.89-10.65-1.87-1.87-2.39-4.29-3.96-5.86l-4.65-4.34-.2.2s4.25,4.38,4.43,4.56c.09.09.09.23,0,.31s-.23.08-.31,0c-.25-.25-4.52-4.47-4.52-4.47l-.2.2s4.24,4.33,4.45,4.54c.09.09.09.23,0,.31s-.23.08-.31,0c-.19-.19-4.54-4.45-4.54-4.45l-.2.2s4.26,4.31,4.47,4.52c.09.09.09.23,0,.31s-.23.08-.31,0c-.25-.25-4.56-4.43-4.56-4.43l-.2.2,4.34,4.65c1.57,1.57,4,2.1,5.86,3.96Z"/>
            <path class="st2" d="M64.81,85.47c-3.71,3.71-8.6,7.36-11.12,9.87-.81.81-1.21,1.62-.58,2.25s1.44.23,2.25-.58c2.52-2.52,6.16-7.41,9.87-11.12,2.48-2.48,5.4-1.49,7.72-3.81,1.8-1.8,2.28-4.23,1.09-5.43s-3.63-.71-5.43,1.09c-2.32,2.32-1.33,5.24-3.81,7.72Z"/>
          </g>
          <path class="st2" d="M77.51,101.94c1.9,1.44,3.68,2.98,5.43,4.57.88.78,1.73,1.6,2.59,2.41l2.53,2.47,2.47,2.53c.8.86,1.63,1.71,2.41,2.59,1.59,1.75,3.13,3.53,4.57,5.43l-.35.35c-1.9-1.44-3.68-2.98-5.43-4.57-.88-.78-1.73-1.61-2.59-2.41l-2.53-2.47-2.47-2.53c-.8-.86-1.63-1.71-2.41-2.59-1.59-1.75-3.13-3.53-4.57-5.43l.35-.35Z"/>
          <path class="st2" d="M48.8,102.3c-1.44,1.9-2.98,3.68-4.57,5.43-.78.88-1.6,1.73-2.41,2.59l-2.47,2.53-2.53,2.47c-.86.8-1.71,1.63-2.59,2.41-1.75,1.59-3.53,3.13-5.43,4.57l-.35-.35c1.44-1.9,2.98-3.68,4.57-5.43.78-.88,1.61-1.73,2.41-2.59l2.47-2.53,2.53-2.47c.86-.8,1.71-1.63,2.59-2.41,1.75-1.59,3.53-3.13,5.43-4.57l.35.35Z"/>
          <path class="st2" d="M47.19,72.42c-1.9-1.44-3.68-2.98-5.43-4.57-.88-.78-1.73-1.6-2.59-2.41l-2.53-2.47-2.47-2.53c-.8-.86-1.63-1.71-2.41-2.59-1.59-1.75-3.13-3.53-4.57-5.43l.35-.35c1.9,1.44,3.68,2.98,5.43,4.57.88.78,1.73,1.61,2.59,2.41l2.53,2.47,2.47,2.53c.8.86,1.63,1.71,2.41,2.59,1.59,1.75,3.13,3.53,4.57,5.43l-.35.35Z"/>
          <path class="st2" d="M78.4,72.07c1.44-1.9,2.98-3.68,4.57-5.43.78-.88,1.6-1.73,2.41-2.59l2.47-2.53,2.53-2.47c.86-.8,1.71-1.63,2.59-2.41,1.75-1.59,3.53-3.13,5.43-4.57l.35.35c-1.44,1.9-2.98,3.68-4.57,5.43-.78.88-1.61,1.73-2.41,2.59l-2.47,2.53-2.53,2.47c-.86.8-1.71,1.63-2.59,2.41-1.75,1.59-3.53,3.13-5.43,4.57l-.35-.35Z"/>
          <path class="st2" d="M147.19,72.42c-1.9-1.44-3.68-2.98-5.43-4.57-.88-.78-1.73-1.6-2.59-2.41l-2.53-2.47-2.47-2.53c-.8-.86-1.63-1.71-2.41-2.59-1.59-1.75-3.13-3.53-4.57-5.43l.35-.35c1.9,1.44,3.68,2.98,5.43,4.57.88.78,1.73,1.61,2.59,2.41l2.53,2.47,2.47,2.53c.8.86,1.63,1.71,2.41,2.59,1.59,1.75,3.13,3.53,4.57,5.43l-.35.35Z"/>
          <path class="st2" d="M148.8,102.3c-1.44,1.9-2.98,3.68-4.57,5.43-.78.88-1.6,1.73-2.41,2.59l-2.47,2.53-2.53,2.47c-.86.8-1.71,1.63-2.59,2.41-1.75,1.59-3.53,3.13-5.43,4.57l-.35-.35c1.44-1.9,2.98-3.68,4.57-5.43.78-.88,1.61-1.73,2.41-2.59l2.47-2.53,2.53-2.47c.86-.8,1.71-1.63,2.59-2.41,1.75-1.59,3.53-3.13,5.43-4.57l.35.35Z"/>
          <path class="st2" d="M178.4,72.07c1.44-1.9,2.98-3.68,4.57-5.43.78-.88,1.6-1.73,2.41-2.59l2.47-2.53,2.53-2.47c.86-.8,1.71-1.63,2.59-2.41,1.75-1.59,3.53-3.13,5.43-4.57l.35.35c-1.44,1.9-2.98,3.68-4.57,5.43-.78.88-1.61,1.73-2.41,2.59l-2.47,2.53-2.53,2.47c-.86.8-1.71,1.63-2.59,2.41-1.75,1.59-3.53,3.13-5.43,4.57l-.35-.35Z"/>
          <path class="st2" d="M177.51,101.94c1.9,1.44,3.68,2.98,5.43,4.57.88.78,1.73,1.6,2.59,2.41l2.53,2.47,2.47,2.53c.8.86,1.63,1.71,2.41,2.59,1.59,1.75,3.13,3.53,4.57,5.43l-.35.35c-1.9-1.44-3.68-2.98-5.43-4.57-.88-.78-1.73-1.61-2.59-2.41l-2.53-2.47-2.47-2.53c-.8-.86-1.63-1.71-2.41-2.59-1.59-1.75-3.13-3.53-4.57-5.43l.35-.35Z"/>
        </g>
        <g>
          <g>
            <path class="st2" d="M115.99,35.11c-4.1,4.1-8.52,9.76-10.65,11.89-.81.81-1.62,1.21-2.25.58s-.23-1.44.58-2.25c2.13-2.13,7.8-6.55,11.89-10.65,1.87-1.87,2.39-4.29,3.96-5.86l4.65-4.34.2.2s-4.25,4.38-4.43,4.56c-.09.09-.09.23,0,.31s.23.08.31,0c.25-.25,4.52-4.47,4.52-4.47l.2.2s-4.24,4.33-4.45,4.54c-.09.09-.09.23,0,.31s.23.08.31,0c.19-.19,4.54-4.45,4.54-4.45l.2.2s-4.26,4.31-4.47,4.52c-.09.09-.09.23,0,.31s.23.08.31,0c.25-.25,4.56-4.43,4.56-4.43l.2.2-4.34,4.65c-1.57,1.57-4,2.1-5.86,3.96Z"/>
            <path class="st2" d="M111.08,35.46c3.71,3.71,8.6,7.36,11.12,9.87.81.81,1.21,1.62.58,2.25s-1.44.23-2.25-.58c-2.52-2.52-6.16-7.41-9.87-11.12-2.48-2.48-5.4-1.49-7.72-3.81-1.8-1.8-2.28-4.23-1.09-5.43s3.63-.71,5.43,1.09c2.32,2.32,1.33,5.24,3.81,7.72Z"/>
          </g>
          <g>
            <path class="st2" d="M115.99,35.11c-4.1,4.1-8.52,9.76-10.65,11.89-.81.81-1.62,1.21-2.25.58s-.23-1.44.58-2.25c2.13-2.13,7.8-6.55,11.89-10.65,1.87-1.87,2.39-4.29,3.96-5.86l4.65-4.34.2.2s-4.25,4.38-4.43,4.56c-.09.09-.09.23,0,.31s.23.08.31,0c.25-.25,4.52-4.47,4.52-4.47l.2.2s-4.24,4.33-4.45,4.54c-.09.09-.09.23,0,.31s.23.08.31,0c.19-.19,4.54-4.45,4.54-4.45l.2.2s-4.26,4.31-4.47,4.52c-.09.09-.09.23,0,.31s.23.08.31,0c.25-.25,4.56-4.43,4.56-4.43l.2.2-4.34,4.65c-1.57,1.57-4,2.1-5.86,3.96Z"/>
            <path class="st2" d="M111.08,35.46c3.71,3.71,8.6,7.36,11.12,9.87.81.81,1.21,1.62.58,2.25s-1.44.23-2.25-.58c-2.52-2.52-6.16-7.41-9.87-11.12-2.48-2.48-5.4-1.49-7.72-3.81-1.8-1.8-2.28-4.23-1.09-5.43s3.63-.71,5.43,1.09c2.32,2.32,1.33,5.24,3.81,7.72Z"/>
          </g>
          <g>
            <path class="st2" d="M16.05,35.15c-4.1,4.1-8.52,9.76-10.65,11.89-.81.81-1.62,1.21-2.25.58s-.23-1.44.58-2.25c2.13-2.13,7.8-6.55,11.89-10.65,1.87-1.87,2.39-4.29,3.96-5.86l4.65-4.34.2.2s-4.25,4.38-4.43,4.56c-.09.09-.09.23,0,.31s.23.08.31,0c.25-.25,4.52-4.47,4.52-4.47l.2.2s-4.24,4.33-4.45,4.54c-.09.09-.09.23,0,.31s.23.08.31,0c.19-.19,4.54-4.45,4.54-4.45l.2.2s-4.26,4.31-4.47,4.52c-.09.09-.09.23,0,.31s.23.08.31,0c.25-.25,4.56-4.43,4.56-4.43l.2.2-4.34,4.65c-1.57,1.57-4,2.1-5.86,3.96Z"/>
            <path class="st2" d="M11.14,35.5c3.71,3.71,8.6,7.36,11.12,9.87.81.81,1.21,1.62.58,2.25s-1.44.23-2.25-.58c-2.52-2.52-6.16-7.41-9.87-11.12-2.48-2.48-5.4-1.49-7.72-3.81-1.8-1.8-2.28-4.23-1.09-5.43s3.63-.71,5.43,1.09c2.32,2.32,1.33,5.24,3.81,7.72Z"/>
          </g>
          <path class="st2" d="M77.51,1.94c1.9,1.44,3.68,2.98,5.43,4.57.88.78,1.73,1.6,2.59,2.41l2.53,2.47,2.47,2.53c.8.86,1.63,1.71,2.41,2.59,1.59,1.75,3.13,3.53,4.57,5.43l-.35.35c-1.9-1.44-3.68-2.98-5.43-4.57-.88-.78-1.73-1.61-2.59-2.41l-2.53-2.47-2.47-2.53c-.8-.86-1.63-1.71-2.41-2.59-1.59-1.75-3.13-3.53-4.57-5.43l.35-.35Z"/>
          <path class="st2" d="M48.8,2.3c-1.44,1.9-2.98,3.68-4.57,5.43-.78.88-1.6,1.73-2.41,2.59l-2.47,2.53-2.53,2.47c-.86.8-1.71,1.63-2.59,2.41-1.75,1.59-3.53,3.13-5.43,4.57l-.35-.35c1.44-1.9,2.98-3.68,4.57-5.43.78-.88,1.61-1.73,2.41-2.59l2.47-2.53,2.53-2.47c.86-.8,1.71-1.63,2.59-2.41,1.75-1.59,3.53-3.13,5.43-4.57l.35.35Z"/>
          <path class="st2" d="M148.8,2.3c-1.44,1.9-2.98,3.68-4.57,5.43-.78.88-1.6,1.73-2.41,2.59l-2.47,2.53-2.53,2.47c-.86.8-1.71,1.63-2.59,2.41-1.75,1.59-3.53,3.13-5.43,4.57l-.35-.35c1.44-1.9,2.98-3.68,4.57-5.43.78-.88,1.61-1.73,2.41-2.59l2.47-2.53,2.53-2.47c.86-.8,1.71-1.63,2.59-2.41,1.75-1.59,3.53-3.13,5.43-4.57l.35.35Z"/>
          <path class="st2" d="M177.51,1.94c1.9,1.44,3.68,2.98,5.43,4.57.88.78,1.73,1.6,2.59,2.41l2.53,2.47,2.47,2.53c.8.86,1.63,1.71,2.41,2.59,1.59,1.75,3.13,3.53,4.57,5.43l-.35.35c-1.9-1.44-3.68-2.98-5.43-4.57-.88-.78-1.73-1.61-2.59-2.41l-2.53-2.47-2.47-2.53c-.8-.86-1.63-1.71-2.41-2.59-1.59-1.75-3.13-3.53-4.57-5.43l.35-.35Z"/>
        </g>
      </g>
    </pattern>
  </defs>
  <rect class="st1" y="-.07" width="2000.07" height="2000.07"/>
</svg>